<mxfile host="app.diagrams.net" modified="2023-11-09T19:16:29.592Z" agent="Mozilla/5.0 (Windows NT 10.0; Win64; x64) AppleWebKit/537.36 (KHTML, like Gecko) Chrome/119.0.0.0 Safari/537.36" etag="weQIZjngoRRS5MOrlOk8" version="22.1.0" type="device">
  <diagram name="Page-1" id="dYtc8bx5nT7pgYYVw_9h">
    <mxGraphModel dx="4654" dy="1660" grid="1" gridSize="10" guides="1" tooltips="1" connect="1" arrows="1" fold="1" page="1" pageScale="1" pageWidth="827" pageHeight="1169" math="0" shadow="0">
      <root>
        <mxCell id="0" />
        <mxCell id="1" parent="0" />
        <mxCell id="gft7mGvlqzZCsYT-RaPn-242" value="" style="group" vertex="1" connectable="0" parent="1">
          <mxGeometry x="-830" width="1630" height="1160" as="geometry" />
        </mxCell>
        <mxCell id="gft7mGvlqzZCsYT-RaPn-1" value="USER" style="shape=table;startSize=25;container=1;collapsible=0;childLayout=tableLayout;fixedRows=1;rowLines=1;fontStyle=1;align=center;resizeLast=1;movable=1;resizable=1;rotatable=1;deletable=1;editable=1;locked=0;connectable=1;" vertex="1" parent="gft7mGvlqzZCsYT-RaPn-242">
          <mxGeometry x="740.2007648183557" width="179.20650095602295" height="245" as="geometry" />
        </mxCell>
        <mxCell id="gft7mGvlqzZCsYT-RaPn-2" style="shape=tableRow;horizontal=0;startSize=0;swimlaneHead=0;swimlaneBody=0;fillColor=none;collapsible=0;dropTarget=0;points=[[0,0.5],[1,0.5]];portConstraint=eastwest;top=0;left=0;right=0;bottom=0;movable=1;resizable=1;rotatable=1;deletable=1;editable=1;locked=0;connectable=1;" vertex="1" parent="gft7mGvlqzZCsYT-RaPn-1">
          <mxGeometry y="25" width="179.20650095602295" height="22" as="geometry" />
        </mxCell>
        <mxCell id="gft7mGvlqzZCsYT-RaPn-3" value="int" style="shape=partialRectangle;connectable=1;fillColor=none;top=0;left=0;bottom=0;right=0;align=left;spacingLeft=2;overflow=hidden;fontSize=11;movable=1;resizable=1;rotatable=1;deletable=1;editable=1;locked=0;" vertex="1" parent="gft7mGvlqzZCsYT-RaPn-2">
          <mxGeometry width="48" height="22" as="geometry">
            <mxRectangle width="48" height="22" as="alternateBounds" />
          </mxGeometry>
        </mxCell>
        <mxCell id="gft7mGvlqzZCsYT-RaPn-4" value="id" style="shape=partialRectangle;connectable=1;fillColor=none;top=0;left=0;bottom=0;right=0;align=left;spacingLeft=2;overflow=hidden;fontSize=11;movable=1;resizable=1;rotatable=1;deletable=1;editable=1;locked=0;" vertex="1" parent="gft7mGvlqzZCsYT-RaPn-2">
          <mxGeometry x="48" width="131.20650095602295" height="22" as="geometry">
            <mxRectangle width="131.20650095602295" height="22" as="alternateBounds" />
          </mxGeometry>
        </mxCell>
        <mxCell id="gft7mGvlqzZCsYT-RaPn-5" style="shape=tableRow;horizontal=0;startSize=0;swimlaneHead=0;swimlaneBody=0;fillColor=none;collapsible=0;dropTarget=0;points=[[0,0.5],[1,0.5]];portConstraint=eastwest;top=0;left=0;right=0;bottom=0;movable=1;resizable=1;rotatable=1;deletable=1;editable=1;locked=0;connectable=1;" vertex="1" parent="gft7mGvlqzZCsYT-RaPn-1">
          <mxGeometry y="47" width="179.20650095602295" height="22" as="geometry" />
        </mxCell>
        <mxCell id="gft7mGvlqzZCsYT-RaPn-6" value="string" style="shape=partialRectangle;connectable=1;fillColor=none;top=0;left=0;bottom=0;right=0;align=left;spacingLeft=2;overflow=hidden;fontSize=11;movable=1;resizable=1;rotatable=1;deletable=1;editable=1;locked=0;" vertex="1" parent="gft7mGvlqzZCsYT-RaPn-5">
          <mxGeometry width="48" height="22" as="geometry">
            <mxRectangle width="48" height="22" as="alternateBounds" />
          </mxGeometry>
        </mxCell>
        <mxCell id="gft7mGvlqzZCsYT-RaPn-7" value="name" style="shape=partialRectangle;connectable=1;fillColor=none;top=0;left=0;bottom=0;right=0;align=left;spacingLeft=2;overflow=hidden;fontSize=11;movable=1;resizable=1;rotatable=1;deletable=1;editable=1;locked=0;" vertex="1" parent="gft7mGvlqzZCsYT-RaPn-5">
          <mxGeometry x="48" width="131.20650095602295" height="22" as="geometry">
            <mxRectangle width="131.20650095602295" height="22" as="alternateBounds" />
          </mxGeometry>
        </mxCell>
        <mxCell id="gft7mGvlqzZCsYT-RaPn-8" style="shape=tableRow;horizontal=0;startSize=0;swimlaneHead=0;swimlaneBody=0;fillColor=none;collapsible=0;dropTarget=0;points=[[0,0.5],[1,0.5]];portConstraint=eastwest;top=0;left=0;right=0;bottom=0;movable=1;resizable=1;rotatable=1;deletable=1;editable=1;locked=0;connectable=1;" vertex="1" parent="gft7mGvlqzZCsYT-RaPn-1">
          <mxGeometry y="69" width="179.20650095602295" height="22" as="geometry" />
        </mxCell>
        <mxCell id="gft7mGvlqzZCsYT-RaPn-9" value="string" style="shape=partialRectangle;connectable=1;fillColor=none;top=0;left=0;bottom=0;right=0;align=left;spacingLeft=2;overflow=hidden;fontSize=11;movable=1;resizable=1;rotatable=1;deletable=1;editable=1;locked=0;" vertex="1" parent="gft7mGvlqzZCsYT-RaPn-8">
          <mxGeometry width="48" height="22" as="geometry">
            <mxRectangle width="48" height="22" as="alternateBounds" />
          </mxGeometry>
        </mxCell>
        <mxCell id="gft7mGvlqzZCsYT-RaPn-10" value="email" style="shape=partialRectangle;connectable=1;fillColor=none;top=0;left=0;bottom=0;right=0;align=left;spacingLeft=2;overflow=hidden;fontSize=11;movable=1;resizable=1;rotatable=1;deletable=1;editable=1;locked=0;" vertex="1" parent="gft7mGvlqzZCsYT-RaPn-8">
          <mxGeometry x="48" width="131.20650095602295" height="22" as="geometry">
            <mxRectangle width="131.20650095602295" height="22" as="alternateBounds" />
          </mxGeometry>
        </mxCell>
        <mxCell id="gft7mGvlqzZCsYT-RaPn-11" style="shape=tableRow;horizontal=0;startSize=0;swimlaneHead=0;swimlaneBody=0;fillColor=none;collapsible=0;dropTarget=0;points=[[0,0.5],[1,0.5]];portConstraint=eastwest;top=0;left=0;right=0;bottom=0;movable=1;resizable=1;rotatable=1;deletable=1;editable=1;locked=0;connectable=1;" vertex="1" parent="gft7mGvlqzZCsYT-RaPn-1">
          <mxGeometry y="91" width="179.20650095602295" height="22" as="geometry" />
        </mxCell>
        <mxCell id="gft7mGvlqzZCsYT-RaPn-12" value="string" style="shape=partialRectangle;connectable=1;fillColor=none;top=0;left=0;bottom=0;right=0;align=left;spacingLeft=2;overflow=hidden;fontSize=11;movable=1;resizable=1;rotatable=1;deletable=1;editable=1;locked=0;" vertex="1" parent="gft7mGvlqzZCsYT-RaPn-11">
          <mxGeometry width="48" height="22" as="geometry">
            <mxRectangle width="48" height="22" as="alternateBounds" />
          </mxGeometry>
        </mxCell>
        <mxCell id="gft7mGvlqzZCsYT-RaPn-13" value="password" style="shape=partialRectangle;connectable=1;fillColor=none;top=0;left=0;bottom=0;right=0;align=left;spacingLeft=2;overflow=hidden;fontSize=11;movable=1;resizable=1;rotatable=1;deletable=1;editable=1;locked=0;" vertex="1" parent="gft7mGvlqzZCsYT-RaPn-11">
          <mxGeometry x="48" width="131.20650095602295" height="22" as="geometry">
            <mxRectangle width="131.20650095602295" height="22" as="alternateBounds" />
          </mxGeometry>
        </mxCell>
        <mxCell id="gft7mGvlqzZCsYT-RaPn-14" style="shape=tableRow;horizontal=0;startSize=0;swimlaneHead=0;swimlaneBody=0;fillColor=none;collapsible=0;dropTarget=0;points=[[0,0.5],[1,0.5]];portConstraint=eastwest;top=0;left=0;right=0;bottom=0;movable=1;resizable=1;rotatable=1;deletable=1;editable=1;locked=0;connectable=1;" vertex="1" parent="gft7mGvlqzZCsYT-RaPn-1">
          <mxGeometry y="113" width="179.20650095602295" height="22" as="geometry" />
        </mxCell>
        <mxCell id="gft7mGvlqzZCsYT-RaPn-15" value="int" style="shape=partialRectangle;connectable=1;fillColor=none;top=0;left=0;bottom=0;right=0;align=left;spacingLeft=2;overflow=hidden;fontSize=11;movable=1;resizable=1;rotatable=1;deletable=1;editable=1;locked=0;" vertex="1" parent="gft7mGvlqzZCsYT-RaPn-14">
          <mxGeometry width="48" height="22" as="geometry">
            <mxRectangle width="48" height="22" as="alternateBounds" />
          </mxGeometry>
        </mxCell>
        <mxCell id="gft7mGvlqzZCsYT-RaPn-16" value="age" style="shape=partialRectangle;connectable=1;fillColor=none;top=0;left=0;bottom=0;right=0;align=left;spacingLeft=2;overflow=hidden;fontSize=11;movable=1;resizable=1;rotatable=1;deletable=1;editable=1;locked=0;" vertex="1" parent="gft7mGvlqzZCsYT-RaPn-14">
          <mxGeometry x="48" width="131.20650095602295" height="22" as="geometry">
            <mxRectangle width="131.20650095602295" height="22" as="alternateBounds" />
          </mxGeometry>
        </mxCell>
        <mxCell id="gft7mGvlqzZCsYT-RaPn-17" style="shape=tableRow;horizontal=0;startSize=0;swimlaneHead=0;swimlaneBody=0;fillColor=none;collapsible=0;dropTarget=0;points=[[0,0.5],[1,0.5]];portConstraint=eastwest;top=0;left=0;right=0;bottom=0;movable=1;resizable=1;rotatable=1;deletable=1;editable=1;locked=0;connectable=1;" vertex="1" parent="gft7mGvlqzZCsYT-RaPn-1">
          <mxGeometry y="135" width="179.20650095602295" height="22" as="geometry" />
        </mxCell>
        <mxCell id="gft7mGvlqzZCsYT-RaPn-18" value="string" style="shape=partialRectangle;connectable=1;fillColor=none;top=0;left=0;bottom=0;right=0;align=left;spacingLeft=2;overflow=hidden;fontSize=11;movable=1;resizable=1;rotatable=1;deletable=1;editable=1;locked=0;" vertex="1" parent="gft7mGvlqzZCsYT-RaPn-17">
          <mxGeometry width="48" height="22" as="geometry">
            <mxRectangle width="48" height="22" as="alternateBounds" />
          </mxGeometry>
        </mxCell>
        <mxCell id="gft7mGvlqzZCsYT-RaPn-19" value="address" style="shape=partialRectangle;connectable=1;fillColor=none;top=0;left=0;bottom=0;right=0;align=left;spacingLeft=2;overflow=hidden;fontSize=11;movable=1;resizable=1;rotatable=1;deletable=1;editable=1;locked=0;" vertex="1" parent="gft7mGvlqzZCsYT-RaPn-17">
          <mxGeometry x="48" width="131.20650095602295" height="22" as="geometry">
            <mxRectangle width="131.20650095602295" height="22" as="alternateBounds" />
          </mxGeometry>
        </mxCell>
        <mxCell id="gft7mGvlqzZCsYT-RaPn-20" style="shape=tableRow;horizontal=0;startSize=0;swimlaneHead=0;swimlaneBody=0;fillColor=none;collapsible=0;dropTarget=0;points=[[0,0.5],[1,0.5]];portConstraint=eastwest;top=0;left=0;right=0;bottom=0;movable=1;resizable=1;rotatable=1;deletable=1;editable=1;locked=0;connectable=1;" vertex="1" parent="gft7mGvlqzZCsYT-RaPn-1">
          <mxGeometry y="157" width="179.20650095602295" height="22" as="geometry" />
        </mxCell>
        <mxCell id="gft7mGvlqzZCsYT-RaPn-21" value="string" style="shape=partialRectangle;connectable=1;fillColor=none;top=0;left=0;bottom=0;right=0;align=left;spacingLeft=2;overflow=hidden;fontSize=11;movable=1;resizable=1;rotatable=1;deletable=1;editable=1;locked=0;" vertex="1" parent="gft7mGvlqzZCsYT-RaPn-20">
          <mxGeometry width="48" height="22" as="geometry">
            <mxRectangle width="48" height="22" as="alternateBounds" />
          </mxGeometry>
        </mxCell>
        <mxCell id="gft7mGvlqzZCsYT-RaPn-22" value="nationality" style="shape=partialRectangle;connectable=1;fillColor=none;top=0;left=0;bottom=0;right=0;align=left;spacingLeft=2;overflow=hidden;fontSize=11;movable=1;resizable=1;rotatable=1;deletable=1;editable=1;locked=0;" vertex="1" parent="gft7mGvlqzZCsYT-RaPn-20">
          <mxGeometry x="48" width="131.20650095602295" height="22" as="geometry">
            <mxRectangle width="131.20650095602295" height="22" as="alternateBounds" />
          </mxGeometry>
        </mxCell>
        <mxCell id="gft7mGvlqzZCsYT-RaPn-23" style="shape=tableRow;horizontal=0;startSize=0;swimlaneHead=0;swimlaneBody=0;fillColor=none;collapsible=0;dropTarget=0;points=[[0,0.5],[1,0.5]];portConstraint=eastwest;top=0;left=0;right=0;bottom=0;movable=1;resizable=1;rotatable=1;deletable=1;editable=1;locked=0;connectable=1;" vertex="1" parent="gft7mGvlqzZCsYT-RaPn-1">
          <mxGeometry y="179" width="179.20650095602295" height="22" as="geometry" />
        </mxCell>
        <mxCell id="gft7mGvlqzZCsYT-RaPn-24" value="datetime" style="shape=partialRectangle;connectable=1;fillColor=none;top=0;left=0;bottom=0;right=0;align=left;spacingLeft=2;overflow=hidden;fontSize=11;movable=1;resizable=1;rotatable=1;deletable=1;editable=1;locked=0;" vertex="1" parent="gft7mGvlqzZCsYT-RaPn-23">
          <mxGeometry width="48" height="22" as="geometry">
            <mxRectangle width="48" height="22" as="alternateBounds" />
          </mxGeometry>
        </mxCell>
        <mxCell id="gft7mGvlqzZCsYT-RaPn-25" value="created_at" style="shape=partialRectangle;connectable=1;fillColor=none;top=0;left=0;bottom=0;right=0;align=left;spacingLeft=2;overflow=hidden;fontSize=11;movable=1;resizable=1;rotatable=1;deletable=1;editable=1;locked=0;" vertex="1" parent="gft7mGvlqzZCsYT-RaPn-23">
          <mxGeometry x="48" width="131.20650095602295" height="22" as="geometry">
            <mxRectangle width="131.20650095602295" height="22" as="alternateBounds" />
          </mxGeometry>
        </mxCell>
        <mxCell id="gft7mGvlqzZCsYT-RaPn-26" style="shape=tableRow;horizontal=0;startSize=0;swimlaneHead=0;swimlaneBody=0;fillColor=none;collapsible=0;dropTarget=0;points=[[0,0.5],[1,0.5]];portConstraint=eastwest;top=0;left=0;right=0;bottom=0;movable=1;resizable=1;rotatable=1;deletable=1;editable=1;locked=0;connectable=1;" vertex="1" parent="gft7mGvlqzZCsYT-RaPn-1">
          <mxGeometry y="201" width="179.20650095602295" height="22" as="geometry" />
        </mxCell>
        <mxCell id="gft7mGvlqzZCsYT-RaPn-27" value="datetime" style="shape=partialRectangle;connectable=1;fillColor=none;top=0;left=0;bottom=0;right=0;align=left;spacingLeft=2;overflow=hidden;fontSize=11;movable=1;resizable=1;rotatable=1;deletable=1;editable=1;locked=0;" vertex="1" parent="gft7mGvlqzZCsYT-RaPn-26">
          <mxGeometry width="48" height="22" as="geometry">
            <mxRectangle width="48" height="22" as="alternateBounds" />
          </mxGeometry>
        </mxCell>
        <mxCell id="gft7mGvlqzZCsYT-RaPn-28" value="updated_at" style="shape=partialRectangle;connectable=1;fillColor=none;top=0;left=0;bottom=0;right=0;align=left;spacingLeft=2;overflow=hidden;fontSize=11;movable=1;resizable=1;rotatable=1;deletable=1;editable=1;locked=0;" vertex="1" parent="gft7mGvlqzZCsYT-RaPn-26">
          <mxGeometry x="48" width="131.20650095602295" height="22" as="geometry">
            <mxRectangle width="131.20650095602295" height="22" as="alternateBounds" />
          </mxGeometry>
        </mxCell>
        <mxCell id="gft7mGvlqzZCsYT-RaPn-29" style="shape=tableRow;horizontal=0;startSize=0;swimlaneHead=0;swimlaneBody=0;fillColor=none;collapsible=0;dropTarget=0;points=[[0,0.5],[1,0.5]];portConstraint=eastwest;top=0;left=0;right=0;bottom=0;movable=1;resizable=1;rotatable=1;deletable=1;editable=1;locked=0;connectable=1;" vertex="1" parent="gft7mGvlqzZCsYT-RaPn-1">
          <mxGeometry y="223" width="179.20650095602295" height="22" as="geometry" />
        </mxCell>
        <mxCell id="gft7mGvlqzZCsYT-RaPn-30" value="datetime" style="shape=partialRectangle;connectable=1;fillColor=none;top=0;left=0;bottom=0;right=0;align=left;spacingLeft=2;overflow=hidden;fontSize=11;movable=1;resizable=1;rotatable=1;deletable=1;editable=1;locked=0;" vertex="1" parent="gft7mGvlqzZCsYT-RaPn-29">
          <mxGeometry width="48" height="22" as="geometry">
            <mxRectangle width="48" height="22" as="alternateBounds" />
          </mxGeometry>
        </mxCell>
        <mxCell id="gft7mGvlqzZCsYT-RaPn-31" value="deleted_at" style="shape=partialRectangle;connectable=1;fillColor=none;top=0;left=0;bottom=0;right=0;align=left;spacingLeft=2;overflow=hidden;fontSize=11;movable=1;resizable=1;rotatable=1;deletable=1;editable=1;locked=0;" vertex="1" parent="gft7mGvlqzZCsYT-RaPn-29">
          <mxGeometry x="48" width="131.20650095602295" height="22" as="geometry">
            <mxRectangle width="131.20650095602295" height="22" as="alternateBounds" />
          </mxGeometry>
        </mxCell>
        <mxCell id="gft7mGvlqzZCsYT-RaPn-32" value="PROPERTY_ALERT" style="shape=table;startSize=25;container=1;collapsible=0;childLayout=tableLayout;fixedRows=1;rowLines=1;fontStyle=1;align=center;resizeLast=1;movable=1;resizable=1;rotatable=1;deletable=1;editable=1;locked=0;connectable=1;" vertex="1" parent="gft7mGvlqzZCsYT-RaPn-242">
          <mxGeometry x="155.8317399617591" y="448.58603066439525" width="224.3977055449331" height="267" as="geometry" />
        </mxCell>
        <mxCell id="gft7mGvlqzZCsYT-RaPn-33" style="shape=tableRow;horizontal=0;startSize=0;swimlaneHead=0;swimlaneBody=0;fillColor=none;collapsible=0;dropTarget=0;points=[[0,0.5],[1,0.5]];portConstraint=eastwest;top=0;left=0;right=0;bottom=0;movable=1;resizable=1;rotatable=1;deletable=1;editable=1;locked=0;connectable=1;" vertex="1" parent="gft7mGvlqzZCsYT-RaPn-32">
          <mxGeometry y="25" width="224.3977055449331" height="22" as="geometry" />
        </mxCell>
        <mxCell id="gft7mGvlqzZCsYT-RaPn-34" value="int" style="shape=partialRectangle;connectable=1;fillColor=none;top=0;left=0;bottom=0;right=0;align=left;spacingLeft=2;overflow=hidden;fontSize=11;movable=1;resizable=1;rotatable=1;deletable=1;editable=1;locked=0;" vertex="1" parent="gft7mGvlqzZCsYT-RaPn-33">
          <mxGeometry width="48" height="22" as="geometry">
            <mxRectangle width="48" height="22" as="alternateBounds" />
          </mxGeometry>
        </mxCell>
        <mxCell id="gft7mGvlqzZCsYT-RaPn-35" value="id" style="shape=partialRectangle;connectable=1;fillColor=none;top=0;left=0;bottom=0;right=0;align=left;spacingLeft=2;overflow=hidden;fontSize=11;movable=1;resizable=1;rotatable=1;deletable=1;editable=1;locked=0;" vertex="1" parent="gft7mGvlqzZCsYT-RaPn-33">
          <mxGeometry x="48" width="176.3977055449331" height="22" as="geometry">
            <mxRectangle width="176.3977055449331" height="22" as="alternateBounds" />
          </mxGeometry>
        </mxCell>
        <mxCell id="gft7mGvlqzZCsYT-RaPn-36" style="shape=tableRow;horizontal=0;startSize=0;swimlaneHead=0;swimlaneBody=0;fillColor=none;collapsible=0;dropTarget=0;points=[[0,0.5],[1,0.5]];portConstraint=eastwest;top=0;left=0;right=0;bottom=0;movable=1;resizable=1;rotatable=1;deletable=1;editable=1;locked=0;connectable=1;" vertex="1" parent="gft7mGvlqzZCsYT-RaPn-32">
          <mxGeometry y="47" width="224.3977055449331" height="22" as="geometry" />
        </mxCell>
        <mxCell id="gft7mGvlqzZCsYT-RaPn-37" value="int" style="shape=partialRectangle;connectable=1;fillColor=none;top=0;left=0;bottom=0;right=0;align=left;spacingLeft=2;overflow=hidden;fontSize=11;movable=1;resizable=1;rotatable=1;deletable=1;editable=1;locked=0;" vertex="1" parent="gft7mGvlqzZCsYT-RaPn-36">
          <mxGeometry width="48" height="22" as="geometry">
            <mxRectangle width="48" height="22" as="alternateBounds" />
          </mxGeometry>
        </mxCell>
        <mxCell id="gft7mGvlqzZCsYT-RaPn-38" value="user_id" style="shape=partialRectangle;connectable=1;fillColor=none;top=0;left=0;bottom=0;right=0;align=left;spacingLeft=2;overflow=hidden;fontSize=11;movable=1;resizable=1;rotatable=1;deletable=1;editable=1;locked=0;" vertex="1" parent="gft7mGvlqzZCsYT-RaPn-36">
          <mxGeometry x="48" width="176.3977055449331" height="22" as="geometry">
            <mxRectangle width="176.3977055449331" height="22" as="alternateBounds" />
          </mxGeometry>
        </mxCell>
        <mxCell id="gft7mGvlqzZCsYT-RaPn-39" style="shape=tableRow;horizontal=0;startSize=0;swimlaneHead=0;swimlaneBody=0;fillColor=none;collapsible=0;dropTarget=0;points=[[0,0.5],[1,0.5]];portConstraint=eastwest;top=0;left=0;right=0;bottom=0;movable=1;resizable=1;rotatable=1;deletable=1;editable=1;locked=0;connectable=1;" vertex="1" parent="gft7mGvlqzZCsYT-RaPn-32">
          <mxGeometry y="69" width="224.3977055449331" height="22" as="geometry" />
        </mxCell>
        <mxCell id="gft7mGvlqzZCsYT-RaPn-40" value="int" style="shape=partialRectangle;connectable=1;fillColor=none;top=0;left=0;bottom=0;right=0;align=left;spacingLeft=2;overflow=hidden;fontSize=11;movable=1;resizable=1;rotatable=1;deletable=1;editable=1;locked=0;" vertex="1" parent="gft7mGvlqzZCsYT-RaPn-39">
          <mxGeometry width="48" height="22" as="geometry">
            <mxRectangle width="48" height="22" as="alternateBounds" />
          </mxGeometry>
        </mxCell>
        <mxCell id="gft7mGvlqzZCsYT-RaPn-41" value="property_type_id" style="shape=partialRectangle;connectable=1;fillColor=none;top=0;left=0;bottom=0;right=0;align=left;spacingLeft=2;overflow=hidden;fontSize=11;movable=1;resizable=1;rotatable=1;deletable=1;editable=1;locked=0;" vertex="1" parent="gft7mGvlqzZCsYT-RaPn-39">
          <mxGeometry x="48" width="176.3977055449331" height="22" as="geometry">
            <mxRectangle width="176.3977055449331" height="22" as="alternateBounds" />
          </mxGeometry>
        </mxCell>
        <mxCell id="gft7mGvlqzZCsYT-RaPn-42" style="shape=tableRow;horizontal=0;startSize=0;swimlaneHead=0;swimlaneBody=0;fillColor=none;collapsible=0;dropTarget=0;points=[[0,0.5],[1,0.5]];portConstraint=eastwest;top=0;left=0;right=0;bottom=0;movable=1;resizable=1;rotatable=1;deletable=1;editable=1;locked=0;connectable=1;" vertex="1" parent="gft7mGvlqzZCsYT-RaPn-32">
          <mxGeometry y="91" width="224.3977055449331" height="22" as="geometry" />
        </mxCell>
        <mxCell id="gft7mGvlqzZCsYT-RaPn-43" value="int" style="shape=partialRectangle;connectable=1;fillColor=none;top=0;left=0;bottom=0;right=0;align=left;spacingLeft=2;overflow=hidden;fontSize=11;movable=1;resizable=1;rotatable=1;deletable=1;editable=1;locked=0;" vertex="1" parent="gft7mGvlqzZCsYT-RaPn-42">
          <mxGeometry width="48" height="22" as="geometry">
            <mxRectangle width="48" height="22" as="alternateBounds" />
          </mxGeometry>
        </mxCell>
        <mxCell id="gft7mGvlqzZCsYT-RaPn-44" value="contract_type_id" style="shape=partialRectangle;connectable=1;fillColor=none;top=0;left=0;bottom=0;right=0;align=left;spacingLeft=2;overflow=hidden;fontSize=11;movable=1;resizable=1;rotatable=1;deletable=1;editable=1;locked=0;" vertex="1" parent="gft7mGvlqzZCsYT-RaPn-42">
          <mxGeometry x="48" width="176.3977055449331" height="22" as="geometry">
            <mxRectangle width="176.3977055449331" height="22" as="alternateBounds" />
          </mxGeometry>
        </mxCell>
        <mxCell id="gft7mGvlqzZCsYT-RaPn-45" style="shape=tableRow;horizontal=0;startSize=0;swimlaneHead=0;swimlaneBody=0;fillColor=none;collapsible=0;dropTarget=0;points=[[0,0.5],[1,0.5]];portConstraint=eastwest;top=0;left=0;right=0;bottom=0;movable=1;resizable=1;rotatable=1;deletable=1;editable=1;locked=0;connectable=1;" vertex="1" parent="gft7mGvlqzZCsYT-RaPn-32">
          <mxGeometry y="113" width="224.3977055449331" height="22" as="geometry" />
        </mxCell>
        <mxCell id="gft7mGvlqzZCsYT-RaPn-46" value="int" style="shape=partialRectangle;connectable=1;fillColor=none;top=0;left=0;bottom=0;right=0;align=left;spacingLeft=2;overflow=hidden;fontSize=11;movable=1;resizable=1;rotatable=1;deletable=1;editable=1;locked=0;" vertex="1" parent="gft7mGvlqzZCsYT-RaPn-45">
          <mxGeometry width="48" height="22" as="geometry">
            <mxRectangle width="48" height="22" as="alternateBounds" />
          </mxGeometry>
        </mxCell>
        <mxCell id="gft7mGvlqzZCsYT-RaPn-47" value="rooms" style="shape=partialRectangle;connectable=1;fillColor=none;top=0;left=0;bottom=0;right=0;align=left;spacingLeft=2;overflow=hidden;fontSize=11;movable=1;resizable=1;rotatable=1;deletable=1;editable=1;locked=0;" vertex="1" parent="gft7mGvlqzZCsYT-RaPn-45">
          <mxGeometry x="48" width="176.3977055449331" height="22" as="geometry">
            <mxRectangle width="176.3977055449331" height="22" as="alternateBounds" />
          </mxGeometry>
        </mxCell>
        <mxCell id="gft7mGvlqzZCsYT-RaPn-48" style="shape=tableRow;horizontal=0;startSize=0;swimlaneHead=0;swimlaneBody=0;fillColor=none;collapsible=0;dropTarget=0;points=[[0,0.5],[1,0.5]];portConstraint=eastwest;top=0;left=0;right=0;bottom=0;movable=1;resizable=1;rotatable=1;deletable=1;editable=1;locked=0;connectable=1;" vertex="1" parent="gft7mGvlqzZCsYT-RaPn-32">
          <mxGeometry y="135" width="224.3977055449331" height="22" as="geometry" />
        </mxCell>
        <mxCell id="gft7mGvlqzZCsYT-RaPn-49" value="string" style="shape=partialRectangle;connectable=1;fillColor=none;top=0;left=0;bottom=0;right=0;align=left;spacingLeft=2;overflow=hidden;fontSize=11;movable=1;resizable=1;rotatable=1;deletable=1;editable=1;locked=0;" vertex="1" parent="gft7mGvlqzZCsYT-RaPn-48">
          <mxGeometry width="48" height="22" as="geometry">
            <mxRectangle width="48" height="22" as="alternateBounds" />
          </mxGeometry>
        </mxCell>
        <mxCell id="gft7mGvlqzZCsYT-RaPn-50" value="location" style="shape=partialRectangle;connectable=1;fillColor=none;top=0;left=0;bottom=0;right=0;align=left;spacingLeft=2;overflow=hidden;fontSize=11;movable=1;resizable=1;rotatable=1;deletable=1;editable=1;locked=0;" vertex="1" parent="gft7mGvlqzZCsYT-RaPn-48">
          <mxGeometry x="48" width="176.3977055449331" height="22" as="geometry">
            <mxRectangle width="176.3977055449331" height="22" as="alternateBounds" />
          </mxGeometry>
        </mxCell>
        <mxCell id="gft7mGvlqzZCsYT-RaPn-51" style="shape=tableRow;horizontal=0;startSize=0;swimlaneHead=0;swimlaneBody=0;fillColor=none;collapsible=0;dropTarget=0;points=[[0,0.5],[1,0.5]];portConstraint=eastwest;top=0;left=0;right=0;bottom=0;movable=1;resizable=1;rotatable=1;deletable=1;editable=1;locked=0;connectable=1;" vertex="1" parent="gft7mGvlqzZCsYT-RaPn-32">
          <mxGeometry y="157" width="224.3977055449331" height="22" as="geometry" />
        </mxCell>
        <mxCell id="gft7mGvlqzZCsYT-RaPn-52" value="decimal" style="shape=partialRectangle;connectable=1;fillColor=none;top=0;left=0;bottom=0;right=0;align=left;spacingLeft=2;overflow=hidden;fontSize=11;movable=1;resizable=1;rotatable=1;deletable=1;editable=1;locked=0;" vertex="1" parent="gft7mGvlqzZCsYT-RaPn-51">
          <mxGeometry width="48" height="22" as="geometry">
            <mxRectangle width="48" height="22" as="alternateBounds" />
          </mxGeometry>
        </mxCell>
        <mxCell id="gft7mGvlqzZCsYT-RaPn-53" value="price_min" style="shape=partialRectangle;connectable=1;fillColor=none;top=0;left=0;bottom=0;right=0;align=left;spacingLeft=2;overflow=hidden;fontSize=11;movable=1;resizable=1;rotatable=1;deletable=1;editable=1;locked=0;" vertex="1" parent="gft7mGvlqzZCsYT-RaPn-51">
          <mxGeometry x="48" width="176.3977055449331" height="22" as="geometry">
            <mxRectangle width="176.3977055449331" height="22" as="alternateBounds" />
          </mxGeometry>
        </mxCell>
        <mxCell id="gft7mGvlqzZCsYT-RaPn-54" style="shape=tableRow;horizontal=0;startSize=0;swimlaneHead=0;swimlaneBody=0;fillColor=none;collapsible=0;dropTarget=0;points=[[0,0.5],[1,0.5]];portConstraint=eastwest;top=0;left=0;right=0;bottom=0;movable=1;resizable=1;rotatable=1;deletable=1;editable=1;locked=0;connectable=1;" vertex="1" parent="gft7mGvlqzZCsYT-RaPn-32">
          <mxGeometry y="179" width="224.3977055449331" height="22" as="geometry" />
        </mxCell>
        <mxCell id="gft7mGvlqzZCsYT-RaPn-55" value="decimal" style="shape=partialRectangle;connectable=1;fillColor=none;top=0;left=0;bottom=0;right=0;align=left;spacingLeft=2;overflow=hidden;fontSize=11;movable=1;resizable=1;rotatable=1;deletable=1;editable=1;locked=0;" vertex="1" parent="gft7mGvlqzZCsYT-RaPn-54">
          <mxGeometry width="48" height="22" as="geometry">
            <mxRectangle width="48" height="22" as="alternateBounds" />
          </mxGeometry>
        </mxCell>
        <mxCell id="gft7mGvlqzZCsYT-RaPn-56" value="price_max" style="shape=partialRectangle;connectable=1;fillColor=none;top=0;left=0;bottom=0;right=0;align=left;spacingLeft=2;overflow=hidden;fontSize=11;movable=1;resizable=1;rotatable=1;deletable=1;editable=1;locked=0;" vertex="1" parent="gft7mGvlqzZCsYT-RaPn-54">
          <mxGeometry x="48" width="176.3977055449331" height="22" as="geometry">
            <mxRectangle width="176.3977055449331" height="22" as="alternateBounds" />
          </mxGeometry>
        </mxCell>
        <mxCell id="gft7mGvlqzZCsYT-RaPn-57" style="shape=tableRow;horizontal=0;startSize=0;swimlaneHead=0;swimlaneBody=0;fillColor=none;collapsible=0;dropTarget=0;points=[[0,0.5],[1,0.5]];portConstraint=eastwest;top=0;left=0;right=0;bottom=0;movable=1;resizable=1;rotatable=1;deletable=1;editable=1;locked=0;connectable=1;" vertex="1" parent="gft7mGvlqzZCsYT-RaPn-32">
          <mxGeometry y="201" width="224.3977055449331" height="22" as="geometry" />
        </mxCell>
        <mxCell id="gft7mGvlqzZCsYT-RaPn-58" value="datetime" style="shape=partialRectangle;connectable=1;fillColor=none;top=0;left=0;bottom=0;right=0;align=left;spacingLeft=2;overflow=hidden;fontSize=11;movable=1;resizable=1;rotatable=1;deletable=1;editable=1;locked=0;" vertex="1" parent="gft7mGvlqzZCsYT-RaPn-57">
          <mxGeometry width="48" height="22" as="geometry">
            <mxRectangle width="48" height="22" as="alternateBounds" />
          </mxGeometry>
        </mxCell>
        <mxCell id="gft7mGvlqzZCsYT-RaPn-59" value="created_at" style="shape=partialRectangle;connectable=1;fillColor=none;top=0;left=0;bottom=0;right=0;align=left;spacingLeft=2;overflow=hidden;fontSize=11;movable=1;resizable=1;rotatable=1;deletable=1;editable=1;locked=0;" vertex="1" parent="gft7mGvlqzZCsYT-RaPn-57">
          <mxGeometry x="48" width="176.3977055449331" height="22" as="geometry">
            <mxRectangle width="176.3977055449331" height="22" as="alternateBounds" />
          </mxGeometry>
        </mxCell>
        <mxCell id="gft7mGvlqzZCsYT-RaPn-60" style="shape=tableRow;horizontal=0;startSize=0;swimlaneHead=0;swimlaneBody=0;fillColor=none;collapsible=0;dropTarget=0;points=[[0,0.5],[1,0.5]];portConstraint=eastwest;top=0;left=0;right=0;bottom=0;movable=1;resizable=1;rotatable=1;deletable=1;editable=1;locked=0;connectable=1;" vertex="1" parent="gft7mGvlqzZCsYT-RaPn-32">
          <mxGeometry y="223" width="224.3977055449331" height="22" as="geometry" />
        </mxCell>
        <mxCell id="gft7mGvlqzZCsYT-RaPn-61" value="datetime" style="shape=partialRectangle;connectable=1;fillColor=none;top=0;left=0;bottom=0;right=0;align=left;spacingLeft=2;overflow=hidden;fontSize=11;movable=1;resizable=1;rotatable=1;deletable=1;editable=1;locked=0;" vertex="1" parent="gft7mGvlqzZCsYT-RaPn-60">
          <mxGeometry width="48" height="22" as="geometry">
            <mxRectangle width="48" height="22" as="alternateBounds" />
          </mxGeometry>
        </mxCell>
        <mxCell id="gft7mGvlqzZCsYT-RaPn-62" value="updated_at" style="shape=partialRectangle;connectable=1;fillColor=none;top=0;left=0;bottom=0;right=0;align=left;spacingLeft=2;overflow=hidden;fontSize=11;movable=1;resizable=1;rotatable=1;deletable=1;editable=1;locked=0;" vertex="1" parent="gft7mGvlqzZCsYT-RaPn-60">
          <mxGeometry x="48" width="176.3977055449331" height="22" as="geometry">
            <mxRectangle width="176.3977055449331" height="22" as="alternateBounds" />
          </mxGeometry>
        </mxCell>
        <mxCell id="gft7mGvlqzZCsYT-RaPn-63" style="shape=tableRow;horizontal=0;startSize=0;swimlaneHead=0;swimlaneBody=0;fillColor=none;collapsible=0;dropTarget=0;points=[[0,0.5],[1,0.5]];portConstraint=eastwest;top=0;left=0;right=0;bottom=0;movable=1;resizable=1;rotatable=1;deletable=1;editable=1;locked=0;connectable=1;" vertex="1" parent="gft7mGvlqzZCsYT-RaPn-32">
          <mxGeometry y="245" width="224.3977055449331" height="22" as="geometry" />
        </mxCell>
        <mxCell id="gft7mGvlqzZCsYT-RaPn-64" value="datetime" style="shape=partialRectangle;connectable=1;fillColor=none;top=0;left=0;bottom=0;right=0;align=left;spacingLeft=2;overflow=hidden;fontSize=11;movable=1;resizable=1;rotatable=1;deletable=1;editable=1;locked=0;" vertex="1" parent="gft7mGvlqzZCsYT-RaPn-63">
          <mxGeometry width="48" height="22" as="geometry">
            <mxRectangle width="48" height="22" as="alternateBounds" />
          </mxGeometry>
        </mxCell>
        <mxCell id="gft7mGvlqzZCsYT-RaPn-65" value="deleted_at" style="shape=partialRectangle;connectable=1;fillColor=none;top=0;left=0;bottom=0;right=0;align=left;spacingLeft=2;overflow=hidden;fontSize=11;movable=1;resizable=1;rotatable=1;deletable=1;editable=1;locked=0;" vertex="1" parent="gft7mGvlqzZCsYT-RaPn-63">
          <mxGeometry x="48" width="176.3977055449331" height="22" as="geometry">
            <mxRectangle width="176.3977055449331" height="22" as="alternateBounds" />
          </mxGeometry>
        </mxCell>
        <mxCell id="gft7mGvlqzZCsYT-RaPn-66" value="FAVORITES" style="shape=table;startSize=25;container=1;collapsible=0;childLayout=tableLayout;fixedRows=1;rowLines=1;fontStyle=1;align=center;resizeLast=1;movable=1;resizable=1;rotatable=1;deletable=1;editable=1;locked=0;connectable=1;" vertex="1" parent="gft7mGvlqzZCsYT-RaPn-242">
          <mxGeometry x="584.3690248565965" y="961.3969335604772" width="179.20650095602295" height="157" as="geometry" />
        </mxCell>
        <mxCell id="gft7mGvlqzZCsYT-RaPn-67" style="shape=tableRow;horizontal=0;startSize=0;swimlaneHead=0;swimlaneBody=0;fillColor=none;collapsible=0;dropTarget=0;points=[[0,0.5],[1,0.5]];portConstraint=eastwest;top=0;left=0;right=0;bottom=0;movable=1;resizable=1;rotatable=1;deletable=1;editable=1;locked=0;connectable=1;" vertex="1" parent="gft7mGvlqzZCsYT-RaPn-66">
          <mxGeometry y="25" width="179.20650095602295" height="22" as="geometry" />
        </mxCell>
        <mxCell id="gft7mGvlqzZCsYT-RaPn-68" value="int" style="shape=partialRectangle;connectable=1;fillColor=none;top=0;left=0;bottom=0;right=0;align=left;spacingLeft=2;overflow=hidden;fontSize=11;movable=1;resizable=1;rotatable=1;deletable=1;editable=1;locked=0;" vertex="1" parent="gft7mGvlqzZCsYT-RaPn-67">
          <mxGeometry width="48" height="22" as="geometry">
            <mxRectangle width="48" height="22" as="alternateBounds" />
          </mxGeometry>
        </mxCell>
        <mxCell id="gft7mGvlqzZCsYT-RaPn-69" value="id" style="shape=partialRectangle;connectable=1;fillColor=none;top=0;left=0;bottom=0;right=0;align=left;spacingLeft=2;overflow=hidden;fontSize=11;movable=1;resizable=1;rotatable=1;deletable=1;editable=1;locked=0;" vertex="1" parent="gft7mGvlqzZCsYT-RaPn-67">
          <mxGeometry x="48" width="131.20650095602295" height="22" as="geometry">
            <mxRectangle width="131.20650095602295" height="22" as="alternateBounds" />
          </mxGeometry>
        </mxCell>
        <mxCell id="gft7mGvlqzZCsYT-RaPn-70" style="shape=tableRow;horizontal=0;startSize=0;swimlaneHead=0;swimlaneBody=0;fillColor=none;collapsible=0;dropTarget=0;points=[[0,0.5],[1,0.5]];portConstraint=eastwest;top=0;left=0;right=0;bottom=0;movable=1;resizable=1;rotatable=1;deletable=1;editable=1;locked=0;connectable=1;" vertex="1" parent="gft7mGvlqzZCsYT-RaPn-66">
          <mxGeometry y="47" width="179.20650095602295" height="22" as="geometry" />
        </mxCell>
        <mxCell id="gft7mGvlqzZCsYT-RaPn-71" value="int" style="shape=partialRectangle;connectable=1;fillColor=none;top=0;left=0;bottom=0;right=0;align=left;spacingLeft=2;overflow=hidden;fontSize=11;movable=1;resizable=1;rotatable=1;deletable=1;editable=1;locked=0;" vertex="1" parent="gft7mGvlqzZCsYT-RaPn-70">
          <mxGeometry width="48" height="22" as="geometry">
            <mxRectangle width="48" height="22" as="alternateBounds" />
          </mxGeometry>
        </mxCell>
        <mxCell id="gft7mGvlqzZCsYT-RaPn-72" value="user_id" style="shape=partialRectangle;connectable=1;fillColor=none;top=0;left=0;bottom=0;right=0;align=left;spacingLeft=2;overflow=hidden;fontSize=11;movable=1;resizable=1;rotatable=1;deletable=1;editable=1;locked=0;" vertex="1" parent="gft7mGvlqzZCsYT-RaPn-70">
          <mxGeometry x="48" width="131.20650095602295" height="22" as="geometry">
            <mxRectangle width="131.20650095602295" height="22" as="alternateBounds" />
          </mxGeometry>
        </mxCell>
        <mxCell id="gft7mGvlqzZCsYT-RaPn-73" style="shape=tableRow;horizontal=0;startSize=0;swimlaneHead=0;swimlaneBody=0;fillColor=none;collapsible=0;dropTarget=0;points=[[0,0.5],[1,0.5]];portConstraint=eastwest;top=0;left=0;right=0;bottom=0;movable=1;resizable=1;rotatable=1;deletable=1;editable=1;locked=0;connectable=1;" vertex="1" parent="gft7mGvlqzZCsYT-RaPn-66">
          <mxGeometry y="69" width="179.20650095602295" height="22" as="geometry" />
        </mxCell>
        <mxCell id="gft7mGvlqzZCsYT-RaPn-74" value="int" style="shape=partialRectangle;connectable=1;fillColor=none;top=0;left=0;bottom=0;right=0;align=left;spacingLeft=2;overflow=hidden;fontSize=11;movable=1;resizable=1;rotatable=1;deletable=1;editable=1;locked=0;" vertex="1" parent="gft7mGvlqzZCsYT-RaPn-73">
          <mxGeometry width="48" height="22" as="geometry">
            <mxRectangle width="48" height="22" as="alternateBounds" />
          </mxGeometry>
        </mxCell>
        <mxCell id="gft7mGvlqzZCsYT-RaPn-75" value="property_id" style="shape=partialRectangle;connectable=1;fillColor=none;top=0;left=0;bottom=0;right=0;align=left;spacingLeft=2;overflow=hidden;fontSize=11;movable=1;resizable=1;rotatable=1;deletable=1;editable=1;locked=0;" vertex="1" parent="gft7mGvlqzZCsYT-RaPn-73">
          <mxGeometry x="48" width="131.20650095602295" height="22" as="geometry">
            <mxRectangle width="131.20650095602295" height="22" as="alternateBounds" />
          </mxGeometry>
        </mxCell>
        <mxCell id="gft7mGvlqzZCsYT-RaPn-76" style="shape=tableRow;horizontal=0;startSize=0;swimlaneHead=0;swimlaneBody=0;fillColor=none;collapsible=0;dropTarget=0;points=[[0,0.5],[1,0.5]];portConstraint=eastwest;top=0;left=0;right=0;bottom=0;movable=1;resizable=1;rotatable=1;deletable=1;editable=1;locked=0;connectable=1;" vertex="1" parent="gft7mGvlqzZCsYT-RaPn-66">
          <mxGeometry y="91" width="179.20650095602295" height="22" as="geometry" />
        </mxCell>
        <mxCell id="gft7mGvlqzZCsYT-RaPn-77" value="datetime" style="shape=partialRectangle;connectable=1;fillColor=none;top=0;left=0;bottom=0;right=0;align=left;spacingLeft=2;overflow=hidden;fontSize=11;movable=1;resizable=1;rotatable=1;deletable=1;editable=1;locked=0;" vertex="1" parent="gft7mGvlqzZCsYT-RaPn-76">
          <mxGeometry width="48" height="22" as="geometry">
            <mxRectangle width="48" height="22" as="alternateBounds" />
          </mxGeometry>
        </mxCell>
        <mxCell id="gft7mGvlqzZCsYT-RaPn-78" value="created_at" style="shape=partialRectangle;connectable=1;fillColor=none;top=0;left=0;bottom=0;right=0;align=left;spacingLeft=2;overflow=hidden;fontSize=11;movable=1;resizable=1;rotatable=1;deletable=1;editable=1;locked=0;" vertex="1" parent="gft7mGvlqzZCsYT-RaPn-76">
          <mxGeometry x="48" width="131.20650095602295" height="22" as="geometry">
            <mxRectangle width="131.20650095602295" height="22" as="alternateBounds" />
          </mxGeometry>
        </mxCell>
        <mxCell id="gft7mGvlqzZCsYT-RaPn-79" style="shape=tableRow;horizontal=0;startSize=0;swimlaneHead=0;swimlaneBody=0;fillColor=none;collapsible=0;dropTarget=0;points=[[0,0.5],[1,0.5]];portConstraint=eastwest;top=0;left=0;right=0;bottom=0;movable=1;resizable=1;rotatable=1;deletable=1;editable=1;locked=0;connectable=1;" vertex="1" parent="gft7mGvlqzZCsYT-RaPn-66">
          <mxGeometry y="113" width="179.20650095602295" height="22" as="geometry" />
        </mxCell>
        <mxCell id="gft7mGvlqzZCsYT-RaPn-80" value="datetime" style="shape=partialRectangle;connectable=1;fillColor=none;top=0;left=0;bottom=0;right=0;align=left;spacingLeft=2;overflow=hidden;fontSize=11;movable=1;resizable=1;rotatable=1;deletable=1;editable=1;locked=0;" vertex="1" parent="gft7mGvlqzZCsYT-RaPn-79">
          <mxGeometry width="48" height="22" as="geometry">
            <mxRectangle width="48" height="22" as="alternateBounds" />
          </mxGeometry>
        </mxCell>
        <mxCell id="gft7mGvlqzZCsYT-RaPn-81" value="updated_at" style="shape=partialRectangle;connectable=1;fillColor=none;top=0;left=0;bottom=0;right=0;align=left;spacingLeft=2;overflow=hidden;fontSize=11;movable=1;resizable=1;rotatable=1;deletable=1;editable=1;locked=0;" vertex="1" parent="gft7mGvlqzZCsYT-RaPn-79">
          <mxGeometry x="48" width="131.20650095602295" height="22" as="geometry">
            <mxRectangle width="131.20650095602295" height="22" as="alternateBounds" />
          </mxGeometry>
        </mxCell>
        <mxCell id="gft7mGvlqzZCsYT-RaPn-82" style="shape=tableRow;horizontal=0;startSize=0;swimlaneHead=0;swimlaneBody=0;fillColor=none;collapsible=0;dropTarget=0;points=[[0,0.5],[1,0.5]];portConstraint=eastwest;top=0;left=0;right=0;bottom=0;movable=1;resizable=1;rotatable=1;deletable=1;editable=1;locked=0;connectable=1;" vertex="1" parent="gft7mGvlqzZCsYT-RaPn-66">
          <mxGeometry y="135" width="179.20650095602295" height="22" as="geometry" />
        </mxCell>
        <mxCell id="gft7mGvlqzZCsYT-RaPn-83" value="datetime" style="shape=partialRectangle;connectable=1;fillColor=none;top=0;left=0;bottom=0;right=0;align=left;spacingLeft=2;overflow=hidden;fontSize=11;movable=1;resizable=1;rotatable=1;deletable=1;editable=1;locked=0;" vertex="1" parent="gft7mGvlqzZCsYT-RaPn-82">
          <mxGeometry width="48" height="22" as="geometry">
            <mxRectangle width="48" height="22" as="alternateBounds" />
          </mxGeometry>
        </mxCell>
        <mxCell id="gft7mGvlqzZCsYT-RaPn-84" value="deleted_at" style="shape=partialRectangle;connectable=1;fillColor=none;top=0;left=0;bottom=0;right=0;align=left;spacingLeft=2;overflow=hidden;fontSize=11;movable=1;resizable=1;rotatable=1;deletable=1;editable=1;locked=0;" vertex="1" parent="gft7mGvlqzZCsYT-RaPn-82">
          <mxGeometry x="48" width="131.20650095602295" height="22" as="geometry">
            <mxRectangle width="131.20650095602295" height="22" as="alternateBounds" />
          </mxGeometry>
        </mxCell>
        <mxCell id="gft7mGvlqzZCsYT-RaPn-85" value="MESSAGE" style="shape=table;startSize=25;container=1;collapsible=0;childLayout=tableLayout;fixedRows=1;rowLines=1;fontStyle=1;align=center;resizeLast=1;movable=1;resizable=1;rotatable=1;deletable=1;editable=1;locked=0;connectable=1;" vertex="1" parent="gft7mGvlqzZCsYT-RaPn-242">
          <mxGeometry x="1450.7934990439771" y="917.9216354344123" width="179.20650095602295" height="245" as="geometry" />
        </mxCell>
        <mxCell id="gft7mGvlqzZCsYT-RaPn-86" style="shape=tableRow;horizontal=0;startSize=0;swimlaneHead=0;swimlaneBody=0;fillColor=none;collapsible=0;dropTarget=0;points=[[0,0.5],[1,0.5]];portConstraint=eastwest;top=0;left=0;right=0;bottom=0;movable=1;resizable=1;rotatable=1;deletable=1;editable=1;locked=0;connectable=1;" vertex="1" parent="gft7mGvlqzZCsYT-RaPn-85">
          <mxGeometry y="25" width="179.20650095602295" height="22" as="geometry" />
        </mxCell>
        <mxCell id="gft7mGvlqzZCsYT-RaPn-87" value="int" style="shape=partialRectangle;connectable=1;fillColor=none;top=0;left=0;bottom=0;right=0;align=left;spacingLeft=2;overflow=hidden;fontSize=11;movable=1;resizable=1;rotatable=1;deletable=1;editable=1;locked=0;" vertex="1" parent="gft7mGvlqzZCsYT-RaPn-86">
          <mxGeometry width="48" height="22" as="geometry">
            <mxRectangle width="48" height="22" as="alternateBounds" />
          </mxGeometry>
        </mxCell>
        <mxCell id="gft7mGvlqzZCsYT-RaPn-88" value="id" style="shape=partialRectangle;connectable=1;fillColor=none;top=0;left=0;bottom=0;right=0;align=left;spacingLeft=2;overflow=hidden;fontSize=11;movable=1;resizable=1;rotatable=1;deletable=1;editable=1;locked=0;" vertex="1" parent="gft7mGvlqzZCsYT-RaPn-86">
          <mxGeometry x="48" width="131.20650095602295" height="22" as="geometry">
            <mxRectangle width="131.20650095602295" height="22" as="alternateBounds" />
          </mxGeometry>
        </mxCell>
        <mxCell id="gft7mGvlqzZCsYT-RaPn-89" style="shape=tableRow;horizontal=0;startSize=0;swimlaneHead=0;swimlaneBody=0;fillColor=none;collapsible=0;dropTarget=0;points=[[0,0.5],[1,0.5]];portConstraint=eastwest;top=0;left=0;right=0;bottom=0;movable=1;resizable=1;rotatable=1;deletable=1;editable=1;locked=0;connectable=1;" vertex="1" parent="gft7mGvlqzZCsYT-RaPn-85">
          <mxGeometry y="47" width="179.20650095602295" height="22" as="geometry" />
        </mxCell>
        <mxCell id="gft7mGvlqzZCsYT-RaPn-90" value="string" style="shape=partialRectangle;connectable=1;fillColor=none;top=0;left=0;bottom=0;right=0;align=left;spacingLeft=2;overflow=hidden;fontSize=11;movable=1;resizable=1;rotatable=1;deletable=1;editable=1;locked=0;" vertex="1" parent="gft7mGvlqzZCsYT-RaPn-89">
          <mxGeometry width="48" height="22" as="geometry">
            <mxRectangle width="48" height="22" as="alternateBounds" />
          </mxGeometry>
        </mxCell>
        <mxCell id="gft7mGvlqzZCsYT-RaPn-91" value="content" style="shape=partialRectangle;connectable=1;fillColor=none;top=0;left=0;bottom=0;right=0;align=left;spacingLeft=2;overflow=hidden;fontSize=11;movable=1;resizable=1;rotatable=1;deletable=1;editable=1;locked=0;" vertex="1" parent="gft7mGvlqzZCsYT-RaPn-89">
          <mxGeometry x="48" width="131.20650095602295" height="22" as="geometry">
            <mxRectangle width="131.20650095602295" height="22" as="alternateBounds" />
          </mxGeometry>
        </mxCell>
        <mxCell id="gft7mGvlqzZCsYT-RaPn-92" style="shape=tableRow;horizontal=0;startSize=0;swimlaneHead=0;swimlaneBody=0;fillColor=none;collapsible=0;dropTarget=0;points=[[0,0.5],[1,0.5]];portConstraint=eastwest;top=0;left=0;right=0;bottom=0;movable=1;resizable=1;rotatable=1;deletable=1;editable=1;locked=0;connectable=1;" vertex="1" parent="gft7mGvlqzZCsYT-RaPn-85">
          <mxGeometry y="69" width="179.20650095602295" height="22" as="geometry" />
        </mxCell>
        <mxCell id="gft7mGvlqzZCsYT-RaPn-93" value="datetime" style="shape=partialRectangle;connectable=1;fillColor=none;top=0;left=0;bottom=0;right=0;align=left;spacingLeft=2;overflow=hidden;fontSize=11;movable=1;resizable=1;rotatable=1;deletable=1;editable=1;locked=0;" vertex="1" parent="gft7mGvlqzZCsYT-RaPn-92">
          <mxGeometry width="48" height="22" as="geometry">
            <mxRectangle width="48" height="22" as="alternateBounds" />
          </mxGeometry>
        </mxCell>
        <mxCell id="gft7mGvlqzZCsYT-RaPn-94" value="sent_at" style="shape=partialRectangle;connectable=1;fillColor=none;top=0;left=0;bottom=0;right=0;align=left;spacingLeft=2;overflow=hidden;fontSize=11;movable=1;resizable=1;rotatable=1;deletable=1;editable=1;locked=0;" vertex="1" parent="gft7mGvlqzZCsYT-RaPn-92">
          <mxGeometry x="48" width="131.20650095602295" height="22" as="geometry">
            <mxRectangle width="131.20650095602295" height="22" as="alternateBounds" />
          </mxGeometry>
        </mxCell>
        <mxCell id="gft7mGvlqzZCsYT-RaPn-95" style="shape=tableRow;horizontal=0;startSize=0;swimlaneHead=0;swimlaneBody=0;fillColor=none;collapsible=0;dropTarget=0;points=[[0,0.5],[1,0.5]];portConstraint=eastwest;top=0;left=0;right=0;bottom=0;movable=1;resizable=1;rotatable=1;deletable=1;editable=1;locked=0;connectable=1;" vertex="1" parent="gft7mGvlqzZCsYT-RaPn-85">
          <mxGeometry y="91" width="179.20650095602295" height="22" as="geometry" />
        </mxCell>
        <mxCell id="gft7mGvlqzZCsYT-RaPn-96" value="int" style="shape=partialRectangle;connectable=1;fillColor=none;top=0;left=0;bottom=0;right=0;align=left;spacingLeft=2;overflow=hidden;fontSize=11;movable=1;resizable=1;rotatable=1;deletable=1;editable=1;locked=0;" vertex="1" parent="gft7mGvlqzZCsYT-RaPn-95">
          <mxGeometry width="48" height="22" as="geometry">
            <mxRectangle width="48" height="22" as="alternateBounds" />
          </mxGeometry>
        </mxCell>
        <mxCell id="gft7mGvlqzZCsYT-RaPn-97" value="sender_id" style="shape=partialRectangle;connectable=1;fillColor=none;top=0;left=0;bottom=0;right=0;align=left;spacingLeft=2;overflow=hidden;fontSize=11;movable=1;resizable=1;rotatable=1;deletable=1;editable=1;locked=0;" vertex="1" parent="gft7mGvlqzZCsYT-RaPn-95">
          <mxGeometry x="48" width="131.20650095602295" height="22" as="geometry">
            <mxRectangle width="131.20650095602295" height="22" as="alternateBounds" />
          </mxGeometry>
        </mxCell>
        <mxCell id="gft7mGvlqzZCsYT-RaPn-98" style="shape=tableRow;horizontal=0;startSize=0;swimlaneHead=0;swimlaneBody=0;fillColor=none;collapsible=0;dropTarget=0;points=[[0,0.5],[1,0.5]];portConstraint=eastwest;top=0;left=0;right=0;bottom=0;movable=1;resizable=1;rotatable=1;deletable=1;editable=1;locked=0;connectable=1;" vertex="1" parent="gft7mGvlqzZCsYT-RaPn-85">
          <mxGeometry y="113" width="179.20650095602295" height="22" as="geometry" />
        </mxCell>
        <mxCell id="gft7mGvlqzZCsYT-RaPn-99" value="int" style="shape=partialRectangle;connectable=1;fillColor=none;top=0;left=0;bottom=0;right=0;align=left;spacingLeft=2;overflow=hidden;fontSize=11;movable=1;resizable=1;rotatable=1;deletable=1;editable=1;locked=0;" vertex="1" parent="gft7mGvlqzZCsYT-RaPn-98">
          <mxGeometry width="48" height="22" as="geometry">
            <mxRectangle width="48" height="22" as="alternateBounds" />
          </mxGeometry>
        </mxCell>
        <mxCell id="gft7mGvlqzZCsYT-RaPn-100" value="receiver_id" style="shape=partialRectangle;connectable=1;fillColor=none;top=0;left=0;bottom=0;right=0;align=left;spacingLeft=2;overflow=hidden;fontSize=11;movable=1;resizable=1;rotatable=1;deletable=1;editable=1;locked=0;" vertex="1" parent="gft7mGvlqzZCsYT-RaPn-98">
          <mxGeometry x="48" width="131.20650095602295" height="22" as="geometry">
            <mxRectangle width="131.20650095602295" height="22" as="alternateBounds" />
          </mxGeometry>
        </mxCell>
        <mxCell id="gft7mGvlqzZCsYT-RaPn-101" style="shape=tableRow;horizontal=0;startSize=0;swimlaneHead=0;swimlaneBody=0;fillColor=none;collapsible=0;dropTarget=0;points=[[0,0.5],[1,0.5]];portConstraint=eastwest;top=0;left=0;right=0;bottom=0;movable=1;resizable=1;rotatable=1;deletable=1;editable=1;locked=0;connectable=1;" vertex="1" parent="gft7mGvlqzZCsYT-RaPn-85">
          <mxGeometry y="135" width="179.20650095602295" height="22" as="geometry" />
        </mxCell>
        <mxCell id="gft7mGvlqzZCsYT-RaPn-102" value="int" style="shape=partialRectangle;connectable=1;fillColor=none;top=0;left=0;bottom=0;right=0;align=left;spacingLeft=2;overflow=hidden;fontSize=11;movable=1;resizable=1;rotatable=1;deletable=1;editable=1;locked=0;" vertex="1" parent="gft7mGvlqzZCsYT-RaPn-101">
          <mxGeometry width="48" height="22" as="geometry">
            <mxRectangle width="48" height="22" as="alternateBounds" />
          </mxGeometry>
        </mxCell>
        <mxCell id="gft7mGvlqzZCsYT-RaPn-103" value="property_id" style="shape=partialRectangle;connectable=1;fillColor=none;top=0;left=0;bottom=0;right=0;align=left;spacingLeft=2;overflow=hidden;fontSize=11;movable=1;resizable=1;rotatable=1;deletable=1;editable=1;locked=0;" vertex="1" parent="gft7mGvlqzZCsYT-RaPn-101">
          <mxGeometry x="48" width="131.20650095602295" height="22" as="geometry">
            <mxRectangle width="131.20650095602295" height="22" as="alternateBounds" />
          </mxGeometry>
        </mxCell>
        <mxCell id="gft7mGvlqzZCsYT-RaPn-104" style="shape=tableRow;horizontal=0;startSize=0;swimlaneHead=0;swimlaneBody=0;fillColor=none;collapsible=0;dropTarget=0;points=[[0,0.5],[1,0.5]];portConstraint=eastwest;top=0;left=0;right=0;bottom=0;movable=1;resizable=1;rotatable=1;deletable=1;editable=1;locked=0;connectable=1;" vertex="1" parent="gft7mGvlqzZCsYT-RaPn-85">
          <mxGeometry y="157" width="179.20650095602295" height="22" as="geometry" />
        </mxCell>
        <mxCell id="gft7mGvlqzZCsYT-RaPn-105" value="boolean" style="shape=partialRectangle;connectable=1;fillColor=none;top=0;left=0;bottom=0;right=0;align=left;spacingLeft=2;overflow=hidden;fontSize=11;movable=1;resizable=1;rotatable=1;deletable=1;editable=1;locked=0;" vertex="1" parent="gft7mGvlqzZCsYT-RaPn-104">
          <mxGeometry width="48" height="22" as="geometry">
            <mxRectangle width="48" height="22" as="alternateBounds" />
          </mxGeometry>
        </mxCell>
        <mxCell id="gft7mGvlqzZCsYT-RaPn-106" value="is_read" style="shape=partialRectangle;connectable=1;fillColor=none;top=0;left=0;bottom=0;right=0;align=left;spacingLeft=2;overflow=hidden;fontSize=11;movable=1;resizable=1;rotatable=1;deletable=1;editable=1;locked=0;" vertex="1" parent="gft7mGvlqzZCsYT-RaPn-104">
          <mxGeometry x="48" width="131.20650095602295" height="22" as="geometry">
            <mxRectangle width="131.20650095602295" height="22" as="alternateBounds" />
          </mxGeometry>
        </mxCell>
        <mxCell id="gft7mGvlqzZCsYT-RaPn-107" style="shape=tableRow;horizontal=0;startSize=0;swimlaneHead=0;swimlaneBody=0;fillColor=none;collapsible=0;dropTarget=0;points=[[0,0.5],[1,0.5]];portConstraint=eastwest;top=0;left=0;right=0;bottom=0;movable=1;resizable=1;rotatable=1;deletable=1;editable=1;locked=0;connectable=1;" vertex="1" parent="gft7mGvlqzZCsYT-RaPn-85">
          <mxGeometry y="179" width="179.20650095602295" height="22" as="geometry" />
        </mxCell>
        <mxCell id="gft7mGvlqzZCsYT-RaPn-108" value="datetime" style="shape=partialRectangle;connectable=1;fillColor=none;top=0;left=0;bottom=0;right=0;align=left;spacingLeft=2;overflow=hidden;fontSize=11;movable=1;resizable=1;rotatable=1;deletable=1;editable=1;locked=0;" vertex="1" parent="gft7mGvlqzZCsYT-RaPn-107">
          <mxGeometry width="48" height="22" as="geometry">
            <mxRectangle width="48" height="22" as="alternateBounds" />
          </mxGeometry>
        </mxCell>
        <mxCell id="gft7mGvlqzZCsYT-RaPn-109" value="created_at" style="shape=partialRectangle;connectable=1;fillColor=none;top=0;left=0;bottom=0;right=0;align=left;spacingLeft=2;overflow=hidden;fontSize=11;movable=1;resizable=1;rotatable=1;deletable=1;editable=1;locked=0;" vertex="1" parent="gft7mGvlqzZCsYT-RaPn-107">
          <mxGeometry x="48" width="131.20650095602295" height="22" as="geometry">
            <mxRectangle width="131.20650095602295" height="22" as="alternateBounds" />
          </mxGeometry>
        </mxCell>
        <mxCell id="gft7mGvlqzZCsYT-RaPn-110" style="shape=tableRow;horizontal=0;startSize=0;swimlaneHead=0;swimlaneBody=0;fillColor=none;collapsible=0;dropTarget=0;points=[[0,0.5],[1,0.5]];portConstraint=eastwest;top=0;left=0;right=0;bottom=0;movable=1;resizable=1;rotatable=1;deletable=1;editable=1;locked=0;connectable=1;" vertex="1" parent="gft7mGvlqzZCsYT-RaPn-85">
          <mxGeometry y="201" width="179.20650095602295" height="22" as="geometry" />
        </mxCell>
        <mxCell id="gft7mGvlqzZCsYT-RaPn-111" value="datetime" style="shape=partialRectangle;connectable=1;fillColor=none;top=0;left=0;bottom=0;right=0;align=left;spacingLeft=2;overflow=hidden;fontSize=11;movable=1;resizable=1;rotatable=1;deletable=1;editable=1;locked=0;" vertex="1" parent="gft7mGvlqzZCsYT-RaPn-110">
          <mxGeometry width="48" height="22" as="geometry">
            <mxRectangle width="48" height="22" as="alternateBounds" />
          </mxGeometry>
        </mxCell>
        <mxCell id="gft7mGvlqzZCsYT-RaPn-112" value="updated_at" style="shape=partialRectangle;connectable=1;fillColor=none;top=0;left=0;bottom=0;right=0;align=left;spacingLeft=2;overflow=hidden;fontSize=11;movable=1;resizable=1;rotatable=1;deletable=1;editable=1;locked=0;" vertex="1" parent="gft7mGvlqzZCsYT-RaPn-110">
          <mxGeometry x="48" width="131.20650095602295" height="22" as="geometry">
            <mxRectangle width="131.20650095602295" height="22" as="alternateBounds" />
          </mxGeometry>
        </mxCell>
        <mxCell id="gft7mGvlqzZCsYT-RaPn-113" style="shape=tableRow;horizontal=0;startSize=0;swimlaneHead=0;swimlaneBody=0;fillColor=none;collapsible=0;dropTarget=0;points=[[0,0.5],[1,0.5]];portConstraint=eastwest;top=0;left=0;right=0;bottom=0;movable=1;resizable=1;rotatable=1;deletable=1;editable=1;locked=0;connectable=1;" vertex="1" parent="gft7mGvlqzZCsYT-RaPn-85">
          <mxGeometry y="223" width="179.20650095602295" height="22" as="geometry" />
        </mxCell>
        <mxCell id="gft7mGvlqzZCsYT-RaPn-114" value="datetime" style="shape=partialRectangle;connectable=1;fillColor=none;top=0;left=0;bottom=0;right=0;align=left;spacingLeft=2;overflow=hidden;fontSize=11;movable=1;resizable=1;rotatable=1;deletable=1;editable=1;locked=0;" vertex="1" parent="gft7mGvlqzZCsYT-RaPn-113">
          <mxGeometry width="48" height="22" as="geometry">
            <mxRectangle width="48" height="22" as="alternateBounds" />
          </mxGeometry>
        </mxCell>
        <mxCell id="gft7mGvlqzZCsYT-RaPn-115" value="deleted_at" style="shape=partialRectangle;connectable=1;fillColor=none;top=0;left=0;bottom=0;right=0;align=left;spacingLeft=2;overflow=hidden;fontSize=11;movable=1;resizable=1;rotatable=1;deletable=1;editable=1;locked=0;" vertex="1" parent="gft7mGvlqzZCsYT-RaPn-113">
          <mxGeometry x="48" width="131.20650095602295" height="22" as="geometry">
            <mxRectangle width="131.20650095602295" height="22" as="alternateBounds" />
          </mxGeometry>
        </mxCell>
        <mxCell id="gft7mGvlqzZCsYT-RaPn-116" value="PROPERTY" style="shape=table;startSize=25;container=1;collapsible=0;childLayout=tableLayout;fixedRows=1;rowLines=1;fontStyle=1;align=center;resizeLast=1;movable=1;resizable=1;rotatable=1;deletable=1;editable=1;locked=0;connectable=1;" vertex="1" parent="gft7mGvlqzZCsYT-RaPn-242">
          <mxGeometry x="1008.2313575525812" y="339.89778534923335" width="233.7476099426386" height="487" as="geometry" />
        </mxCell>
        <mxCell id="gft7mGvlqzZCsYT-RaPn-117" style="shape=tableRow;horizontal=0;startSize=0;swimlaneHead=0;swimlaneBody=0;fillColor=none;collapsible=0;dropTarget=0;points=[[0,0.5],[1,0.5]];portConstraint=eastwest;top=0;left=0;right=0;bottom=0;movable=1;resizable=1;rotatable=1;deletable=1;editable=1;locked=0;connectable=1;" vertex="1" parent="gft7mGvlqzZCsYT-RaPn-116">
          <mxGeometry y="25" width="233.7476099426386" height="22" as="geometry" />
        </mxCell>
        <mxCell id="gft7mGvlqzZCsYT-RaPn-118" value="int" style="shape=partialRectangle;connectable=1;fillColor=none;top=0;left=0;bottom=0;right=0;align=left;spacingLeft=2;overflow=hidden;fontSize=11;movable=1;resizable=1;rotatable=1;deletable=1;editable=1;locked=0;" vertex="1" parent="gft7mGvlqzZCsYT-RaPn-117">
          <mxGeometry width="48" height="22" as="geometry">
            <mxRectangle width="48" height="22" as="alternateBounds" />
          </mxGeometry>
        </mxCell>
        <mxCell id="gft7mGvlqzZCsYT-RaPn-119" value="id" style="shape=partialRectangle;connectable=1;fillColor=none;top=0;left=0;bottom=0;right=0;align=left;spacingLeft=2;overflow=hidden;fontSize=11;movable=1;resizable=1;rotatable=1;deletable=1;editable=1;locked=0;" vertex="1" parent="gft7mGvlqzZCsYT-RaPn-117">
          <mxGeometry x="48" width="185.7476099426386" height="22" as="geometry">
            <mxRectangle width="185.7476099426386" height="22" as="alternateBounds" />
          </mxGeometry>
        </mxCell>
        <mxCell id="gft7mGvlqzZCsYT-RaPn-120" style="shape=tableRow;horizontal=0;startSize=0;swimlaneHead=0;swimlaneBody=0;fillColor=none;collapsible=0;dropTarget=0;points=[[0,0.5],[1,0.5]];portConstraint=eastwest;top=0;left=0;right=0;bottom=0;movable=1;resizable=1;rotatable=1;deletable=1;editable=1;locked=0;connectable=1;" vertex="1" parent="gft7mGvlqzZCsYT-RaPn-116">
          <mxGeometry y="47" width="233.7476099426386" height="22" as="geometry" />
        </mxCell>
        <mxCell id="gft7mGvlqzZCsYT-RaPn-121" value="string" style="shape=partialRectangle;connectable=1;fillColor=none;top=0;left=0;bottom=0;right=0;align=left;spacingLeft=2;overflow=hidden;fontSize=11;movable=1;resizable=1;rotatable=1;deletable=1;editable=1;locked=0;" vertex="1" parent="gft7mGvlqzZCsYT-RaPn-120">
          <mxGeometry width="48" height="22" as="geometry">
            <mxRectangle width="48" height="22" as="alternateBounds" />
          </mxGeometry>
        </mxCell>
        <mxCell id="gft7mGvlqzZCsYT-RaPn-122" value="title" style="shape=partialRectangle;connectable=1;fillColor=none;top=0;left=0;bottom=0;right=0;align=left;spacingLeft=2;overflow=hidden;fontSize=11;movable=1;resizable=1;rotatable=1;deletable=1;editable=1;locked=0;" vertex="1" parent="gft7mGvlqzZCsYT-RaPn-120">
          <mxGeometry x="48" width="185.7476099426386" height="22" as="geometry">
            <mxRectangle width="185.7476099426386" height="22" as="alternateBounds" />
          </mxGeometry>
        </mxCell>
        <mxCell id="gft7mGvlqzZCsYT-RaPn-123" style="shape=tableRow;horizontal=0;startSize=0;swimlaneHead=0;swimlaneBody=0;fillColor=none;collapsible=0;dropTarget=0;points=[[0,0.5],[1,0.5]];portConstraint=eastwest;top=0;left=0;right=0;bottom=0;movable=1;resizable=1;rotatable=1;deletable=1;editable=1;locked=0;connectable=1;" vertex="1" parent="gft7mGvlqzZCsYT-RaPn-116">
          <mxGeometry y="69" width="233.7476099426386" height="22" as="geometry" />
        </mxCell>
        <mxCell id="gft7mGvlqzZCsYT-RaPn-124" value="string" style="shape=partialRectangle;connectable=1;fillColor=none;top=0;left=0;bottom=0;right=0;align=left;spacingLeft=2;overflow=hidden;fontSize=11;movable=1;resizable=1;rotatable=1;deletable=1;editable=1;locked=0;" vertex="1" parent="gft7mGvlqzZCsYT-RaPn-123">
          <mxGeometry width="48" height="22" as="geometry">
            <mxRectangle width="48" height="22" as="alternateBounds" />
          </mxGeometry>
        </mxCell>
        <mxCell id="gft7mGvlqzZCsYT-RaPn-125" value="description" style="shape=partialRectangle;connectable=1;fillColor=none;top=0;left=0;bottom=0;right=0;align=left;spacingLeft=2;overflow=hidden;fontSize=11;movable=1;resizable=1;rotatable=1;deletable=1;editable=1;locked=0;" vertex="1" parent="gft7mGvlqzZCsYT-RaPn-123">
          <mxGeometry x="48" width="185.7476099426386" height="22" as="geometry">
            <mxRectangle width="185.7476099426386" height="22" as="alternateBounds" />
          </mxGeometry>
        </mxCell>
        <mxCell id="gft7mGvlqzZCsYT-RaPn-126" style="shape=tableRow;horizontal=0;startSize=0;swimlaneHead=0;swimlaneBody=0;fillColor=none;collapsible=0;dropTarget=0;points=[[0,0.5],[1,0.5]];portConstraint=eastwest;top=0;left=0;right=0;bottom=0;movable=1;resizable=1;rotatable=1;deletable=1;editable=1;locked=0;connectable=1;" vertex="1" parent="gft7mGvlqzZCsYT-RaPn-116">
          <mxGeometry y="91" width="233.7476099426386" height="22" as="geometry" />
        </mxCell>
        <mxCell id="gft7mGvlqzZCsYT-RaPn-127" value="int" style="shape=partialRectangle;connectable=1;fillColor=none;top=0;left=0;bottom=0;right=0;align=left;spacingLeft=2;overflow=hidden;fontSize=11;movable=1;resizable=1;rotatable=1;deletable=1;editable=1;locked=0;" vertex="1" parent="gft7mGvlqzZCsYT-RaPn-126">
          <mxGeometry width="48" height="22" as="geometry">
            <mxRectangle width="48" height="22" as="alternateBounds" />
          </mxGeometry>
        </mxCell>
        <mxCell id="gft7mGvlqzZCsYT-RaPn-128" value="user_id" style="shape=partialRectangle;connectable=1;fillColor=none;top=0;left=0;bottom=0;right=0;align=left;spacingLeft=2;overflow=hidden;fontSize=11;movable=1;resizable=1;rotatable=1;deletable=1;editable=1;locked=0;" vertex="1" parent="gft7mGvlqzZCsYT-RaPn-126">
          <mxGeometry x="48" width="185.7476099426386" height="22" as="geometry">
            <mxRectangle width="185.7476099426386" height="22" as="alternateBounds" />
          </mxGeometry>
        </mxCell>
        <mxCell id="gft7mGvlqzZCsYT-RaPn-129" style="shape=tableRow;horizontal=0;startSize=0;swimlaneHead=0;swimlaneBody=0;fillColor=none;collapsible=0;dropTarget=0;points=[[0,0.5],[1,0.5]];portConstraint=eastwest;top=0;left=0;right=0;bottom=0;movable=1;resizable=1;rotatable=1;deletable=1;editable=1;locked=0;connectable=1;" vertex="1" parent="gft7mGvlqzZCsYT-RaPn-116">
          <mxGeometry y="113" width="233.7476099426386" height="22" as="geometry" />
        </mxCell>
        <mxCell id="gft7mGvlqzZCsYT-RaPn-130" value="int" style="shape=partialRectangle;connectable=1;fillColor=none;top=0;left=0;bottom=0;right=0;align=left;spacingLeft=2;overflow=hidden;fontSize=11;movable=1;resizable=1;rotatable=1;deletable=1;editable=1;locked=0;" vertex="1" parent="gft7mGvlqzZCsYT-RaPn-129">
          <mxGeometry width="48" height="22" as="geometry">
            <mxRectangle width="48" height="22" as="alternateBounds" />
          </mxGeometry>
        </mxCell>
        <mxCell id="gft7mGvlqzZCsYT-RaPn-131" value="property_type_id" style="shape=partialRectangle;connectable=1;fillColor=none;top=0;left=0;bottom=0;right=0;align=left;spacingLeft=2;overflow=hidden;fontSize=11;movable=1;resizable=1;rotatable=1;deletable=1;editable=1;locked=0;" vertex="1" parent="gft7mGvlqzZCsYT-RaPn-129">
          <mxGeometry x="48" width="185.7476099426386" height="22" as="geometry">
            <mxRectangle width="185.7476099426386" height="22" as="alternateBounds" />
          </mxGeometry>
        </mxCell>
        <mxCell id="gft7mGvlqzZCsYT-RaPn-132" style="shape=tableRow;horizontal=0;startSize=0;swimlaneHead=0;swimlaneBody=0;fillColor=none;collapsible=0;dropTarget=0;points=[[0,0.5],[1,0.5]];portConstraint=eastwest;top=0;left=0;right=0;bottom=0;movable=1;resizable=1;rotatable=1;deletable=1;editable=1;locked=0;connectable=1;" vertex="1" parent="gft7mGvlqzZCsYT-RaPn-116">
          <mxGeometry y="135" width="233.7476099426386" height="22" as="geometry" />
        </mxCell>
        <mxCell id="gft7mGvlqzZCsYT-RaPn-133" value="int" style="shape=partialRectangle;connectable=1;fillColor=none;top=0;left=0;bottom=0;right=0;align=left;spacingLeft=2;overflow=hidden;fontSize=11;movable=1;resizable=1;rotatable=1;deletable=1;editable=1;locked=0;" vertex="1" parent="gft7mGvlqzZCsYT-RaPn-132">
          <mxGeometry width="48" height="22" as="geometry">
            <mxRectangle width="48" height="22" as="alternateBounds" />
          </mxGeometry>
        </mxCell>
        <mxCell id="gft7mGvlqzZCsYT-RaPn-134" value="contract_type_id" style="shape=partialRectangle;connectable=1;fillColor=none;top=0;left=0;bottom=0;right=0;align=left;spacingLeft=2;overflow=hidden;fontSize=11;movable=1;resizable=1;rotatable=1;deletable=1;editable=1;locked=0;" vertex="1" parent="gft7mGvlqzZCsYT-RaPn-132">
          <mxGeometry x="48" width="185.7476099426386" height="22" as="geometry">
            <mxRectangle width="185.7476099426386" height="22" as="alternateBounds" />
          </mxGeometry>
        </mxCell>
        <mxCell id="gft7mGvlqzZCsYT-RaPn-135" style="shape=tableRow;horizontal=0;startSize=0;swimlaneHead=0;swimlaneBody=0;fillColor=none;collapsible=0;dropTarget=0;points=[[0,0.5],[1,0.5]];portConstraint=eastwest;top=0;left=0;right=0;bottom=0;movable=1;resizable=1;rotatable=1;deletable=1;editable=1;locked=0;connectable=1;" vertex="1" parent="gft7mGvlqzZCsYT-RaPn-116">
          <mxGeometry y="157" width="233.7476099426386" height="22" as="geometry" />
        </mxCell>
        <mxCell id="gft7mGvlqzZCsYT-RaPn-136" value="int" style="shape=partialRectangle;connectable=1;fillColor=none;top=0;left=0;bottom=0;right=0;align=left;spacingLeft=2;overflow=hidden;fontSize=11;movable=1;resizable=1;rotatable=1;deletable=1;editable=1;locked=0;" vertex="1" parent="gft7mGvlqzZCsYT-RaPn-135">
          <mxGeometry width="48" height="22" as="geometry">
            <mxRectangle width="48" height="22" as="alternateBounds" />
          </mxGeometry>
        </mxCell>
        <mxCell id="gft7mGvlqzZCsYT-RaPn-137" value="rooms" style="shape=partialRectangle;connectable=1;fillColor=none;top=0;left=0;bottom=0;right=0;align=left;spacingLeft=2;overflow=hidden;fontSize=11;movable=1;resizable=1;rotatable=1;deletable=1;editable=1;locked=0;" vertex="1" parent="gft7mGvlqzZCsYT-RaPn-135">
          <mxGeometry x="48" width="185.7476099426386" height="22" as="geometry">
            <mxRectangle width="185.7476099426386" height="22" as="alternateBounds" />
          </mxGeometry>
        </mxCell>
        <mxCell id="gft7mGvlqzZCsYT-RaPn-138" style="shape=tableRow;horizontal=0;startSize=0;swimlaneHead=0;swimlaneBody=0;fillColor=none;collapsible=0;dropTarget=0;points=[[0,0.5],[1,0.5]];portConstraint=eastwest;top=0;left=0;right=0;bottom=0;movable=1;resizable=1;rotatable=1;deletable=1;editable=1;locked=0;connectable=1;" vertex="1" parent="gft7mGvlqzZCsYT-RaPn-116">
          <mxGeometry y="179" width="233.7476099426386" height="22" as="geometry" />
        </mxCell>
        <mxCell id="gft7mGvlqzZCsYT-RaPn-139" value="string" style="shape=partialRectangle;connectable=1;fillColor=none;top=0;left=0;bottom=0;right=0;align=left;spacingLeft=2;overflow=hidden;fontSize=11;movable=1;resizable=1;rotatable=1;deletable=1;editable=1;locked=0;" vertex="1" parent="gft7mGvlqzZCsYT-RaPn-138">
          <mxGeometry width="48" height="22" as="geometry">
            <mxRectangle width="48" height="22" as="alternateBounds" />
          </mxGeometry>
        </mxCell>
        <mxCell id="gft7mGvlqzZCsYT-RaPn-140" value="location" style="shape=partialRectangle;connectable=1;fillColor=none;top=0;left=0;bottom=0;right=0;align=left;spacingLeft=2;overflow=hidden;fontSize=11;movable=1;resizable=1;rotatable=1;deletable=1;editable=1;locked=0;" vertex="1" parent="gft7mGvlqzZCsYT-RaPn-138">
          <mxGeometry x="48" width="185.7476099426386" height="22" as="geometry">
            <mxRectangle width="185.7476099426386" height="22" as="alternateBounds" />
          </mxGeometry>
        </mxCell>
        <mxCell id="gft7mGvlqzZCsYT-RaPn-141" style="shape=tableRow;horizontal=0;startSize=0;swimlaneHead=0;swimlaneBody=0;fillColor=none;collapsible=0;dropTarget=0;points=[[0,0.5],[1,0.5]];portConstraint=eastwest;top=0;left=0;right=0;bottom=0;movable=1;resizable=1;rotatable=1;deletable=1;editable=1;locked=0;connectable=1;" vertex="1" parent="gft7mGvlqzZCsYT-RaPn-116">
          <mxGeometry y="201" width="233.7476099426386" height="22" as="geometry" />
        </mxCell>
        <mxCell id="gft7mGvlqzZCsYT-RaPn-142" value="decimal" style="shape=partialRectangle;connectable=1;fillColor=none;top=0;left=0;bottom=0;right=0;align=left;spacingLeft=2;overflow=hidden;fontSize=11;movable=1;resizable=1;rotatable=1;deletable=1;editable=1;locked=0;" vertex="1" parent="gft7mGvlqzZCsYT-RaPn-141">
          <mxGeometry width="48" height="22" as="geometry">
            <mxRectangle width="48" height="22" as="alternateBounds" />
          </mxGeometry>
        </mxCell>
        <mxCell id="gft7mGvlqzZCsYT-RaPn-143" value="price" style="shape=partialRectangle;connectable=1;fillColor=none;top=0;left=0;bottom=0;right=0;align=left;spacingLeft=2;overflow=hidden;fontSize=11;movable=1;resizable=1;rotatable=1;deletable=1;editable=1;locked=0;" vertex="1" parent="gft7mGvlqzZCsYT-RaPn-141">
          <mxGeometry x="48" width="185.7476099426386" height="22" as="geometry">
            <mxRectangle width="185.7476099426386" height="22" as="alternateBounds" />
          </mxGeometry>
        </mxCell>
        <mxCell id="gft7mGvlqzZCsYT-RaPn-144" style="shape=tableRow;horizontal=0;startSize=0;swimlaneHead=0;swimlaneBody=0;fillColor=none;collapsible=0;dropTarget=0;points=[[0,0.5],[1,0.5]];portConstraint=eastwest;top=0;left=0;right=0;bottom=0;movable=1;resizable=1;rotatable=1;deletable=1;editable=1;locked=0;connectable=1;" vertex="1" parent="gft7mGvlqzZCsYT-RaPn-116">
          <mxGeometry y="223" width="233.7476099426386" height="22" as="geometry" />
        </mxCell>
        <mxCell id="gft7mGvlqzZCsYT-RaPn-145" value="int" style="shape=partialRectangle;connectable=1;fillColor=none;top=0;left=0;bottom=0;right=0;align=left;spacingLeft=2;overflow=hidden;fontSize=11;movable=1;resizable=1;rotatable=1;deletable=1;editable=1;locked=0;" vertex="1" parent="gft7mGvlqzZCsYT-RaPn-144">
          <mxGeometry width="48" height="22" as="geometry">
            <mxRectangle width="48" height="22" as="alternateBounds" />
          </mxGeometry>
        </mxCell>
        <mxCell id="gft7mGvlqzZCsYT-RaPn-146" value="bathrooms" style="shape=partialRectangle;connectable=1;fillColor=none;top=0;left=0;bottom=0;right=0;align=left;spacingLeft=2;overflow=hidden;fontSize=11;movable=1;resizable=1;rotatable=1;deletable=1;editable=1;locked=0;" vertex="1" parent="gft7mGvlqzZCsYT-RaPn-144">
          <mxGeometry x="48" width="185.7476099426386" height="22" as="geometry">
            <mxRectangle width="185.7476099426386" height="22" as="alternateBounds" />
          </mxGeometry>
        </mxCell>
        <mxCell id="gft7mGvlqzZCsYT-RaPn-147" style="shape=tableRow;horizontal=0;startSize=0;swimlaneHead=0;swimlaneBody=0;fillColor=none;collapsible=0;dropTarget=0;points=[[0,0.5],[1,0.5]];portConstraint=eastwest;top=0;left=0;right=0;bottom=0;movable=1;resizable=1;rotatable=1;deletable=1;editable=1;locked=0;connectable=1;" vertex="1" parent="gft7mGvlqzZCsYT-RaPn-116">
          <mxGeometry y="245" width="233.7476099426386" height="22" as="geometry" />
        </mxCell>
        <mxCell id="gft7mGvlqzZCsYT-RaPn-148" value="int" style="shape=partialRectangle;connectable=1;fillColor=none;top=0;left=0;bottom=0;right=0;align=left;spacingLeft=2;overflow=hidden;fontSize=11;movable=1;resizable=1;rotatable=1;deletable=1;editable=1;locked=0;" vertex="1" parent="gft7mGvlqzZCsYT-RaPn-147">
          <mxGeometry width="48" height="22" as="geometry">
            <mxRectangle width="48" height="22" as="alternateBounds" />
          </mxGeometry>
        </mxCell>
        <mxCell id="gft7mGvlqzZCsYT-RaPn-149" value="floors" style="shape=partialRectangle;connectable=1;fillColor=none;top=0;left=0;bottom=0;right=0;align=left;spacingLeft=2;overflow=hidden;fontSize=11;movable=1;resizable=1;rotatable=1;deletable=1;editable=1;locked=0;" vertex="1" parent="gft7mGvlqzZCsYT-RaPn-147">
          <mxGeometry x="48" width="185.7476099426386" height="22" as="geometry">
            <mxRectangle width="185.7476099426386" height="22" as="alternateBounds" />
          </mxGeometry>
        </mxCell>
        <mxCell id="gft7mGvlqzZCsYT-RaPn-150" style="shape=tableRow;horizontal=0;startSize=0;swimlaneHead=0;swimlaneBody=0;fillColor=none;collapsible=0;dropTarget=0;points=[[0,0.5],[1,0.5]];portConstraint=eastwest;top=0;left=0;right=0;bottom=0;movable=1;resizable=1;rotatable=1;deletable=1;editable=1;locked=0;connectable=1;" vertex="1" parent="gft7mGvlqzZCsYT-RaPn-116">
          <mxGeometry y="267" width="233.7476099426386" height="22" as="geometry" />
        </mxCell>
        <mxCell id="gft7mGvlqzZCsYT-RaPn-151" value="int" style="shape=partialRectangle;connectable=1;fillColor=none;top=0;left=0;bottom=0;right=0;align=left;spacingLeft=2;overflow=hidden;fontSize=11;movable=1;resizable=1;rotatable=1;deletable=1;editable=1;locked=0;" vertex="1" parent="gft7mGvlqzZCsYT-RaPn-150">
          <mxGeometry width="48" height="22" as="geometry">
            <mxRectangle width="48" height="22" as="alternateBounds" />
          </mxGeometry>
        </mxCell>
        <mxCell id="gft7mGvlqzZCsYT-RaPn-152" value="garage_spaces" style="shape=partialRectangle;connectable=1;fillColor=none;top=0;left=0;bottom=0;right=0;align=left;spacingLeft=2;overflow=hidden;fontSize=11;movable=1;resizable=1;rotatable=1;deletable=1;editable=1;locked=0;" vertex="1" parent="gft7mGvlqzZCsYT-RaPn-150">
          <mxGeometry x="48" width="185.7476099426386" height="22" as="geometry">
            <mxRectangle width="185.7476099426386" height="22" as="alternateBounds" />
          </mxGeometry>
        </mxCell>
        <mxCell id="gft7mGvlqzZCsYT-RaPn-153" style="shape=tableRow;horizontal=0;startSize=0;swimlaneHead=0;swimlaneBody=0;fillColor=none;collapsible=0;dropTarget=0;points=[[0,0.5],[1,0.5]];portConstraint=eastwest;top=0;left=0;right=0;bottom=0;movable=1;resizable=1;rotatable=1;deletable=1;editable=1;locked=0;connectable=1;" vertex="1" parent="gft7mGvlqzZCsYT-RaPn-116">
          <mxGeometry y="289" width="233.7476099426386" height="22" as="geometry" />
        </mxCell>
        <mxCell id="gft7mGvlqzZCsYT-RaPn-154" value="decimal" style="shape=partialRectangle;connectable=1;fillColor=none;top=0;left=0;bottom=0;right=0;align=left;spacingLeft=2;overflow=hidden;fontSize=11;movable=1;resizable=1;rotatable=1;deletable=1;editable=1;locked=0;" vertex="1" parent="gft7mGvlqzZCsYT-RaPn-153">
          <mxGeometry width="48" height="22" as="geometry">
            <mxRectangle width="48" height="22" as="alternateBounds" />
          </mxGeometry>
        </mxCell>
        <mxCell id="gft7mGvlqzZCsYT-RaPn-155" value="area" style="shape=partialRectangle;connectable=1;fillColor=none;top=0;left=0;bottom=0;right=0;align=left;spacingLeft=2;overflow=hidden;fontSize=11;movable=1;resizable=1;rotatable=1;deletable=1;editable=1;locked=0;" vertex="1" parent="gft7mGvlqzZCsYT-RaPn-153">
          <mxGeometry x="48" width="185.7476099426386" height="22" as="geometry">
            <mxRectangle width="185.7476099426386" height="22" as="alternateBounds" />
          </mxGeometry>
        </mxCell>
        <mxCell id="gft7mGvlqzZCsYT-RaPn-156" style="shape=tableRow;horizontal=0;startSize=0;swimlaneHead=0;swimlaneBody=0;fillColor=none;collapsible=0;dropTarget=0;points=[[0,0.5],[1,0.5]];portConstraint=eastwest;top=0;left=0;right=0;bottom=0;movable=1;resizable=1;rotatable=1;deletable=1;editable=1;locked=0;connectable=1;" vertex="1" parent="gft7mGvlqzZCsYT-RaPn-116">
          <mxGeometry y="311" width="233.7476099426386" height="22" as="geometry" />
        </mxCell>
        <mxCell id="gft7mGvlqzZCsYT-RaPn-157" value="boolean" style="shape=partialRectangle;connectable=1;fillColor=none;top=0;left=0;bottom=0;right=0;align=left;spacingLeft=2;overflow=hidden;fontSize=11;movable=1;resizable=1;rotatable=1;deletable=1;editable=1;locked=0;" vertex="1" parent="gft7mGvlqzZCsYT-RaPn-156">
          <mxGeometry width="48" height="22" as="geometry">
            <mxRectangle width="48" height="22" as="alternateBounds" />
          </mxGeometry>
        </mxCell>
        <mxCell id="gft7mGvlqzZCsYT-RaPn-158" value="pets_allowed" style="shape=partialRectangle;connectable=1;fillColor=none;top=0;left=0;bottom=0;right=0;align=left;spacingLeft=2;overflow=hidden;fontSize=11;movable=1;resizable=1;rotatable=1;deletable=1;editable=1;locked=0;" vertex="1" parent="gft7mGvlqzZCsYT-RaPn-156">
          <mxGeometry x="48" width="185.7476099426386" height="22" as="geometry">
            <mxRectangle width="185.7476099426386" height="22" as="alternateBounds" />
          </mxGeometry>
        </mxCell>
        <mxCell id="gft7mGvlqzZCsYT-RaPn-159" style="shape=tableRow;horizontal=0;startSize=0;swimlaneHead=0;swimlaneBody=0;fillColor=none;collapsible=0;dropTarget=0;points=[[0,0.5],[1,0.5]];portConstraint=eastwest;top=0;left=0;right=0;bottom=0;movable=1;resizable=1;rotatable=1;deletable=1;editable=1;locked=0;connectable=1;" vertex="1" parent="gft7mGvlqzZCsYT-RaPn-116">
          <mxGeometry y="333" width="233.7476099426386" height="22" as="geometry" />
        </mxCell>
        <mxCell id="gft7mGvlqzZCsYT-RaPn-160" value="datetime" style="shape=partialRectangle;connectable=1;fillColor=none;top=0;left=0;bottom=0;right=0;align=left;spacingLeft=2;overflow=hidden;fontSize=11;movable=1;resizable=1;rotatable=1;deletable=1;editable=1;locked=0;" vertex="1" parent="gft7mGvlqzZCsYT-RaPn-159">
          <mxGeometry width="48" height="22" as="geometry">
            <mxRectangle width="48" height="22" as="alternateBounds" />
          </mxGeometry>
        </mxCell>
        <mxCell id="gft7mGvlqzZCsYT-RaPn-161" value="listing_date" style="shape=partialRectangle;connectable=1;fillColor=none;top=0;left=0;bottom=0;right=0;align=left;spacingLeft=2;overflow=hidden;fontSize=11;movable=1;resizable=1;rotatable=1;deletable=1;editable=1;locked=0;" vertex="1" parent="gft7mGvlqzZCsYT-RaPn-159">
          <mxGeometry x="48" width="185.7476099426386" height="22" as="geometry">
            <mxRectangle width="185.7476099426386" height="22" as="alternateBounds" />
          </mxGeometry>
        </mxCell>
        <mxCell id="gft7mGvlqzZCsYT-RaPn-162" style="shape=tableRow;horizontal=0;startSize=0;swimlaneHead=0;swimlaneBody=0;fillColor=none;collapsible=0;dropTarget=0;points=[[0,0.5],[1,0.5]];portConstraint=eastwest;top=0;left=0;right=0;bottom=0;movable=1;resizable=1;rotatable=1;deletable=1;editable=1;locked=0;connectable=1;" vertex="1" parent="gft7mGvlqzZCsYT-RaPn-116">
          <mxGeometry y="355" width="233.7476099426386" height="22" as="geometry" />
        </mxCell>
        <mxCell id="gft7mGvlqzZCsYT-RaPn-163" value="boolean" style="shape=partialRectangle;connectable=1;fillColor=none;top=0;left=0;bottom=0;right=0;align=left;spacingLeft=2;overflow=hidden;fontSize=11;movable=1;resizable=1;rotatable=1;deletable=1;editable=1;locked=0;" vertex="1" parent="gft7mGvlqzZCsYT-RaPn-162">
          <mxGeometry width="48" height="22" as="geometry">
            <mxRectangle width="48" height="22" as="alternateBounds" />
          </mxGeometry>
        </mxCell>
        <mxCell id="gft7mGvlqzZCsYT-RaPn-164" value="garden" style="shape=partialRectangle;connectable=1;fillColor=none;top=0;left=0;bottom=0;right=0;align=left;spacingLeft=2;overflow=hidden;fontSize=11;movable=1;resizable=1;rotatable=1;deletable=1;editable=1;locked=0;" vertex="1" parent="gft7mGvlqzZCsYT-RaPn-162">
          <mxGeometry x="48" width="185.7476099426386" height="22" as="geometry">
            <mxRectangle width="185.7476099426386" height="22" as="alternateBounds" />
          </mxGeometry>
        </mxCell>
        <mxCell id="gft7mGvlqzZCsYT-RaPn-165" style="shape=tableRow;horizontal=0;startSize=0;swimlaneHead=0;swimlaneBody=0;fillColor=none;collapsible=0;dropTarget=0;points=[[0,0.5],[1,0.5]];portConstraint=eastwest;top=0;left=0;right=0;bottom=0;movable=1;resizable=1;rotatable=1;deletable=1;editable=1;locked=0;connectable=1;" vertex="1" parent="gft7mGvlqzZCsYT-RaPn-116">
          <mxGeometry y="377" width="233.7476099426386" height="22" as="geometry" />
        </mxCell>
        <mxCell id="gft7mGvlqzZCsYT-RaPn-166" value="boolean" style="shape=partialRectangle;connectable=1;fillColor=none;top=0;left=0;bottom=0;right=0;align=left;spacingLeft=2;overflow=hidden;fontSize=11;movable=1;resizable=1;rotatable=1;deletable=1;editable=1;locked=0;" vertex="1" parent="gft7mGvlqzZCsYT-RaPn-165">
          <mxGeometry width="48" height="22" as="geometry">
            <mxRectangle width="48" height="22" as="alternateBounds" />
          </mxGeometry>
        </mxCell>
        <mxCell id="gft7mGvlqzZCsYT-RaPn-167" value="pool" style="shape=partialRectangle;connectable=1;fillColor=none;top=0;left=0;bottom=0;right=0;align=left;spacingLeft=2;overflow=hidden;fontSize=11;movable=1;resizable=1;rotatable=1;deletable=1;editable=1;locked=0;" vertex="1" parent="gft7mGvlqzZCsYT-RaPn-165">
          <mxGeometry x="48" width="185.7476099426386" height="22" as="geometry">
            <mxRectangle width="185.7476099426386" height="22" as="alternateBounds" />
          </mxGeometry>
        </mxCell>
        <mxCell id="gft7mGvlqzZCsYT-RaPn-168" style="shape=tableRow;horizontal=0;startSize=0;swimlaneHead=0;swimlaneBody=0;fillColor=none;collapsible=0;dropTarget=0;points=[[0,0.5],[1,0.5]];portConstraint=eastwest;top=0;left=0;right=0;bottom=0;movable=1;resizable=1;rotatable=1;deletable=1;editable=1;locked=0;connectable=1;" vertex="1" parent="gft7mGvlqzZCsYT-RaPn-116">
          <mxGeometry y="399" width="233.7476099426386" height="22" as="geometry" />
        </mxCell>
        <mxCell id="gft7mGvlqzZCsYT-RaPn-169" value="boolean" style="shape=partialRectangle;connectable=1;fillColor=none;top=0;left=0;bottom=0;right=0;align=left;spacingLeft=2;overflow=hidden;fontSize=11;movable=1;resizable=1;rotatable=1;deletable=1;editable=1;locked=0;" vertex="1" parent="gft7mGvlqzZCsYT-RaPn-168">
          <mxGeometry width="48" height="22" as="geometry">
            <mxRectangle width="48" height="22" as="alternateBounds" />
          </mxGeometry>
        </mxCell>
        <mxCell id="gft7mGvlqzZCsYT-RaPn-170" value="is_sold_or_rented" style="shape=partialRectangle;connectable=1;fillColor=none;top=0;left=0;bottom=0;right=0;align=left;spacingLeft=2;overflow=hidden;fontSize=11;movable=1;resizable=1;rotatable=1;deletable=1;editable=1;locked=0;" vertex="1" parent="gft7mGvlqzZCsYT-RaPn-168">
          <mxGeometry x="48" width="185.7476099426386" height="22" as="geometry">
            <mxRectangle width="185.7476099426386" height="22" as="alternateBounds" />
          </mxGeometry>
        </mxCell>
        <mxCell id="gft7mGvlqzZCsYT-RaPn-171" style="shape=tableRow;horizontal=0;startSize=0;swimlaneHead=0;swimlaneBody=0;fillColor=none;collapsible=0;dropTarget=0;points=[[0,0.5],[1,0.5]];portConstraint=eastwest;top=0;left=0;right=0;bottom=0;movable=1;resizable=1;rotatable=1;deletable=1;editable=1;locked=0;connectable=1;" vertex="1" parent="gft7mGvlqzZCsYT-RaPn-116">
          <mxGeometry y="421" width="233.7476099426386" height="22" as="geometry" />
        </mxCell>
        <mxCell id="gft7mGvlqzZCsYT-RaPn-172" value="datetime" style="shape=partialRectangle;connectable=1;fillColor=none;top=0;left=0;bottom=0;right=0;align=left;spacingLeft=2;overflow=hidden;fontSize=11;movable=1;resizable=1;rotatable=1;deletable=1;editable=1;locked=0;" vertex="1" parent="gft7mGvlqzZCsYT-RaPn-171">
          <mxGeometry width="48" height="22" as="geometry">
            <mxRectangle width="48" height="22" as="alternateBounds" />
          </mxGeometry>
        </mxCell>
        <mxCell id="gft7mGvlqzZCsYT-RaPn-173" value="created_at" style="shape=partialRectangle;connectable=1;fillColor=none;top=0;left=0;bottom=0;right=0;align=left;spacingLeft=2;overflow=hidden;fontSize=11;movable=1;resizable=1;rotatable=1;deletable=1;editable=1;locked=0;" vertex="1" parent="gft7mGvlqzZCsYT-RaPn-171">
          <mxGeometry x="48" width="185.7476099426386" height="22" as="geometry">
            <mxRectangle width="185.7476099426386" height="22" as="alternateBounds" />
          </mxGeometry>
        </mxCell>
        <mxCell id="gft7mGvlqzZCsYT-RaPn-174" style="shape=tableRow;horizontal=0;startSize=0;swimlaneHead=0;swimlaneBody=0;fillColor=none;collapsible=0;dropTarget=0;points=[[0,0.5],[1,0.5]];portConstraint=eastwest;top=0;left=0;right=0;bottom=0;movable=1;resizable=1;rotatable=1;deletable=1;editable=1;locked=0;connectable=1;" vertex="1" parent="gft7mGvlqzZCsYT-RaPn-116">
          <mxGeometry y="443" width="233.7476099426386" height="22" as="geometry" />
        </mxCell>
        <mxCell id="gft7mGvlqzZCsYT-RaPn-175" value="datetime" style="shape=partialRectangle;connectable=1;fillColor=none;top=0;left=0;bottom=0;right=0;align=left;spacingLeft=2;overflow=hidden;fontSize=11;movable=1;resizable=1;rotatable=1;deletable=1;editable=1;locked=0;" vertex="1" parent="gft7mGvlqzZCsYT-RaPn-174">
          <mxGeometry width="48" height="22" as="geometry">
            <mxRectangle width="48" height="22" as="alternateBounds" />
          </mxGeometry>
        </mxCell>
        <mxCell id="gft7mGvlqzZCsYT-RaPn-176" value="updated_at" style="shape=partialRectangle;connectable=1;fillColor=none;top=0;left=0;bottom=0;right=0;align=left;spacingLeft=2;overflow=hidden;fontSize=11;movable=1;resizable=1;rotatable=1;deletable=1;editable=1;locked=0;" vertex="1" parent="gft7mGvlqzZCsYT-RaPn-174">
          <mxGeometry x="48" width="185.7476099426386" height="22" as="geometry">
            <mxRectangle width="185.7476099426386" height="22" as="alternateBounds" />
          </mxGeometry>
        </mxCell>
        <mxCell id="gft7mGvlqzZCsYT-RaPn-177" style="shape=tableRow;horizontal=0;startSize=0;swimlaneHead=0;swimlaneBody=0;fillColor=none;collapsible=0;dropTarget=0;points=[[0,0.5],[1,0.5]];portConstraint=eastwest;top=0;left=0;right=0;bottom=0;movable=1;resizable=1;rotatable=1;deletable=1;editable=1;locked=0;connectable=1;" vertex="1" parent="gft7mGvlqzZCsYT-RaPn-116">
          <mxGeometry y="465" width="233.7476099426386" height="22" as="geometry" />
        </mxCell>
        <mxCell id="gft7mGvlqzZCsYT-RaPn-178" value="datetime" style="shape=partialRectangle;connectable=1;fillColor=none;top=0;left=0;bottom=0;right=0;align=left;spacingLeft=2;overflow=hidden;fontSize=11;movable=1;resizable=1;rotatable=1;deletable=1;editable=1;locked=0;" vertex="1" parent="gft7mGvlqzZCsYT-RaPn-177">
          <mxGeometry width="48" height="22" as="geometry">
            <mxRectangle width="48" height="22" as="alternateBounds" />
          </mxGeometry>
        </mxCell>
        <mxCell id="gft7mGvlqzZCsYT-RaPn-179" value="deleted_at" style="shape=partialRectangle;connectable=1;fillColor=none;top=0;left=0;bottom=0;right=0;align=left;spacingLeft=2;overflow=hidden;fontSize=11;movable=1;resizable=1;rotatable=1;deletable=1;editable=1;locked=0;" vertex="1" parent="gft7mGvlqzZCsYT-RaPn-177">
          <mxGeometry x="48" width="185.7476099426386" height="22" as="geometry">
            <mxRectangle width="185.7476099426386" height="22" as="alternateBounds" />
          </mxGeometry>
        </mxCell>
        <mxCell id="gft7mGvlqzZCsYT-RaPn-180" value="PROPERTY_TYPE" style="shape=table;startSize=25;container=1;collapsible=0;childLayout=tableLayout;fixedRows=1;rowLines=1;fontStyle=1;align=center;resizeLast=1;movable=1;resizable=1;rotatable=1;deletable=1;editable=1;locked=0;connectable=1;" vertex="1" parent="gft7mGvlqzZCsYT-RaPn-242">
          <mxGeometry x="344.3881453154876" y="54.344122657580925" width="183.88145315487571" height="135" as="geometry" />
        </mxCell>
        <mxCell id="gft7mGvlqzZCsYT-RaPn-181" style="shape=tableRow;horizontal=0;startSize=0;swimlaneHead=0;swimlaneBody=0;fillColor=none;collapsible=0;dropTarget=0;points=[[0,0.5],[1,0.5]];portConstraint=eastwest;top=0;left=0;right=0;bottom=0;movable=1;resizable=1;rotatable=1;deletable=1;editable=1;locked=0;connectable=1;" vertex="1" parent="gft7mGvlqzZCsYT-RaPn-180">
          <mxGeometry y="25" width="183.88145315487571" height="22" as="geometry" />
        </mxCell>
        <mxCell id="gft7mGvlqzZCsYT-RaPn-182" value="int" style="shape=partialRectangle;connectable=1;fillColor=none;top=0;left=0;bottom=0;right=0;align=left;spacingLeft=2;overflow=hidden;fontSize=11;movable=1;resizable=1;rotatable=1;deletable=1;editable=1;locked=0;" vertex="1" parent="gft7mGvlqzZCsYT-RaPn-181">
          <mxGeometry width="48" height="22" as="geometry">
            <mxRectangle width="48" height="22" as="alternateBounds" />
          </mxGeometry>
        </mxCell>
        <mxCell id="gft7mGvlqzZCsYT-RaPn-183" value="id" style="shape=partialRectangle;connectable=1;fillColor=none;top=0;left=0;bottom=0;right=0;align=left;spacingLeft=2;overflow=hidden;fontSize=11;movable=1;resizable=1;rotatable=1;deletable=1;editable=1;locked=0;" vertex="1" parent="gft7mGvlqzZCsYT-RaPn-181">
          <mxGeometry x="48" width="135.88145315487571" height="22" as="geometry">
            <mxRectangle width="135.88145315487571" height="22" as="alternateBounds" />
          </mxGeometry>
        </mxCell>
        <mxCell id="gft7mGvlqzZCsYT-RaPn-184" style="shape=tableRow;horizontal=0;startSize=0;swimlaneHead=0;swimlaneBody=0;fillColor=none;collapsible=0;dropTarget=0;points=[[0,0.5],[1,0.5]];portConstraint=eastwest;top=0;left=0;right=0;bottom=0;movable=1;resizable=1;rotatable=1;deletable=1;editable=1;locked=0;connectable=1;" vertex="1" parent="gft7mGvlqzZCsYT-RaPn-180">
          <mxGeometry y="47" width="183.88145315487571" height="22" as="geometry" />
        </mxCell>
        <mxCell id="gft7mGvlqzZCsYT-RaPn-185" value="string" style="shape=partialRectangle;connectable=1;fillColor=none;top=0;left=0;bottom=0;right=0;align=left;spacingLeft=2;overflow=hidden;fontSize=11;movable=1;resizable=1;rotatable=1;deletable=1;editable=1;locked=0;" vertex="1" parent="gft7mGvlqzZCsYT-RaPn-184">
          <mxGeometry width="48" height="22" as="geometry">
            <mxRectangle width="48" height="22" as="alternateBounds" />
          </mxGeometry>
        </mxCell>
        <mxCell id="gft7mGvlqzZCsYT-RaPn-186" value="typology" style="shape=partialRectangle;connectable=1;fillColor=none;top=0;left=0;bottom=0;right=0;align=left;spacingLeft=2;overflow=hidden;fontSize=11;movable=1;resizable=1;rotatable=1;deletable=1;editable=1;locked=0;" vertex="1" parent="gft7mGvlqzZCsYT-RaPn-184">
          <mxGeometry x="48" width="135.88145315487571" height="22" as="geometry">
            <mxRectangle width="135.88145315487571" height="22" as="alternateBounds" />
          </mxGeometry>
        </mxCell>
        <mxCell id="gft7mGvlqzZCsYT-RaPn-187" style="shape=tableRow;horizontal=0;startSize=0;swimlaneHead=0;swimlaneBody=0;fillColor=none;collapsible=0;dropTarget=0;points=[[0,0.5],[1,0.5]];portConstraint=eastwest;top=0;left=0;right=0;bottom=0;movable=1;resizable=1;rotatable=1;deletable=1;editable=1;locked=0;connectable=1;" vertex="1" parent="gft7mGvlqzZCsYT-RaPn-180">
          <mxGeometry y="69" width="183.88145315487571" height="22" as="geometry" />
        </mxCell>
        <mxCell id="gft7mGvlqzZCsYT-RaPn-188" value="datetime" style="shape=partialRectangle;connectable=1;fillColor=none;top=0;left=0;bottom=0;right=0;align=left;spacingLeft=2;overflow=hidden;fontSize=11;movable=1;resizable=1;rotatable=1;deletable=1;editable=1;locked=0;" vertex="1" parent="gft7mGvlqzZCsYT-RaPn-187">
          <mxGeometry width="48" height="22" as="geometry">
            <mxRectangle width="48" height="22" as="alternateBounds" />
          </mxGeometry>
        </mxCell>
        <mxCell id="gft7mGvlqzZCsYT-RaPn-189" value="created_at" style="shape=partialRectangle;connectable=1;fillColor=none;top=0;left=0;bottom=0;right=0;align=left;spacingLeft=2;overflow=hidden;fontSize=11;movable=1;resizable=1;rotatable=1;deletable=1;editable=1;locked=0;" vertex="1" parent="gft7mGvlqzZCsYT-RaPn-187">
          <mxGeometry x="48" width="135.88145315487571" height="22" as="geometry">
            <mxRectangle width="135.88145315487571" height="22" as="alternateBounds" />
          </mxGeometry>
        </mxCell>
        <mxCell id="gft7mGvlqzZCsYT-RaPn-190" style="shape=tableRow;horizontal=0;startSize=0;swimlaneHead=0;swimlaneBody=0;fillColor=none;collapsible=0;dropTarget=0;points=[[0,0.5],[1,0.5]];portConstraint=eastwest;top=0;left=0;right=0;bottom=0;movable=1;resizable=1;rotatable=1;deletable=1;editable=1;locked=0;connectable=1;" vertex="1" parent="gft7mGvlqzZCsYT-RaPn-180">
          <mxGeometry y="91" width="183.88145315487571" height="22" as="geometry" />
        </mxCell>
        <mxCell id="gft7mGvlqzZCsYT-RaPn-191" value="datetime" style="shape=partialRectangle;connectable=1;fillColor=none;top=0;left=0;bottom=0;right=0;align=left;spacingLeft=2;overflow=hidden;fontSize=11;movable=1;resizable=1;rotatable=1;deletable=1;editable=1;locked=0;" vertex="1" parent="gft7mGvlqzZCsYT-RaPn-190">
          <mxGeometry width="48" height="22" as="geometry">
            <mxRectangle width="48" height="22" as="alternateBounds" />
          </mxGeometry>
        </mxCell>
        <mxCell id="gft7mGvlqzZCsYT-RaPn-192" value="updated_at" style="shape=partialRectangle;connectable=1;fillColor=none;top=0;left=0;bottom=0;right=0;align=left;spacingLeft=2;overflow=hidden;fontSize=11;movable=1;resizable=1;rotatable=1;deletable=1;editable=1;locked=0;" vertex="1" parent="gft7mGvlqzZCsYT-RaPn-190">
          <mxGeometry x="48" width="135.88145315487571" height="22" as="geometry">
            <mxRectangle width="135.88145315487571" height="22" as="alternateBounds" />
          </mxGeometry>
        </mxCell>
        <mxCell id="gft7mGvlqzZCsYT-RaPn-193" style="shape=tableRow;horizontal=0;startSize=0;swimlaneHead=0;swimlaneBody=0;fillColor=none;collapsible=0;dropTarget=0;points=[[0,0.5],[1,0.5]];portConstraint=eastwest;top=0;left=0;right=0;bottom=0;movable=1;resizable=1;rotatable=1;deletable=1;editable=1;locked=0;connectable=1;" vertex="1" parent="gft7mGvlqzZCsYT-RaPn-180">
          <mxGeometry y="113" width="183.88145315487571" height="22" as="geometry" />
        </mxCell>
        <mxCell id="gft7mGvlqzZCsYT-RaPn-194" value="datetime" style="shape=partialRectangle;connectable=1;fillColor=none;top=0;left=0;bottom=0;right=0;align=left;spacingLeft=2;overflow=hidden;fontSize=11;movable=1;resizable=1;rotatable=1;deletable=1;editable=1;locked=0;" vertex="1" parent="gft7mGvlqzZCsYT-RaPn-193">
          <mxGeometry width="48" height="22" as="geometry">
            <mxRectangle width="48" height="22" as="alternateBounds" />
          </mxGeometry>
        </mxCell>
        <mxCell id="gft7mGvlqzZCsYT-RaPn-195" value="deleted_at" style="shape=partialRectangle;connectable=1;fillColor=none;top=0;left=0;bottom=0;right=0;align=left;spacingLeft=2;overflow=hidden;fontSize=11;movable=1;resizable=1;rotatable=1;deletable=1;editable=1;locked=0;" vertex="1" parent="gft7mGvlqzZCsYT-RaPn-193">
          <mxGeometry x="48" width="135.88145315487571" height="22" as="geometry">
            <mxRectangle width="135.88145315487571" height="22" as="alternateBounds" />
          </mxGeometry>
        </mxCell>
        <mxCell id="gft7mGvlqzZCsYT-RaPn-196" value="CONTRACT_TYPE" style="shape=table;startSize=25;container=1;collapsible=0;childLayout=tableLayout;fixedRows=1;rowLines=1;fontStyle=1;align=center;resizeLast=1;movable=1;resizable=1;rotatable=1;deletable=1;editable=1;locked=0;connectable=1;" vertex="1" parent="gft7mGvlqzZCsYT-RaPn-242">
          <mxGeometry y="54.344122657580925" width="188.55640535372848" height="135" as="geometry" />
        </mxCell>
        <mxCell id="gft7mGvlqzZCsYT-RaPn-197" style="shape=tableRow;horizontal=0;startSize=0;swimlaneHead=0;swimlaneBody=0;fillColor=none;collapsible=0;dropTarget=0;points=[[0,0.5],[1,0.5]];portConstraint=eastwest;top=0;left=0;right=0;bottom=0;movable=1;resizable=1;rotatable=1;deletable=1;editable=1;locked=0;connectable=1;" vertex="1" parent="gft7mGvlqzZCsYT-RaPn-196">
          <mxGeometry y="25" width="188.55640535372848" height="22" as="geometry" />
        </mxCell>
        <mxCell id="gft7mGvlqzZCsYT-RaPn-198" value="int" style="shape=partialRectangle;connectable=1;fillColor=none;top=0;left=0;bottom=0;right=0;align=left;spacingLeft=2;overflow=hidden;fontSize=11;movable=1;resizable=1;rotatable=1;deletable=1;editable=1;locked=0;" vertex="1" parent="gft7mGvlqzZCsYT-RaPn-197">
          <mxGeometry width="48" height="22" as="geometry">
            <mxRectangle width="48" height="22" as="alternateBounds" />
          </mxGeometry>
        </mxCell>
        <mxCell id="gft7mGvlqzZCsYT-RaPn-199" value="id" style="shape=partialRectangle;connectable=1;fillColor=none;top=0;left=0;bottom=0;right=0;align=left;spacingLeft=2;overflow=hidden;fontSize=11;movable=1;resizable=1;rotatable=1;deletable=1;editable=1;locked=0;" vertex="1" parent="gft7mGvlqzZCsYT-RaPn-197">
          <mxGeometry x="48" width="140.55640535372848" height="22" as="geometry">
            <mxRectangle width="140.55640535372848" height="22" as="alternateBounds" />
          </mxGeometry>
        </mxCell>
        <mxCell id="gft7mGvlqzZCsYT-RaPn-200" style="shape=tableRow;horizontal=0;startSize=0;swimlaneHead=0;swimlaneBody=0;fillColor=none;collapsible=0;dropTarget=0;points=[[0,0.5],[1,0.5]];portConstraint=eastwest;top=0;left=0;right=0;bottom=0;movable=1;resizable=1;rotatable=1;deletable=1;editable=1;locked=0;connectable=1;" vertex="1" parent="gft7mGvlqzZCsYT-RaPn-196">
          <mxGeometry y="47" width="188.55640535372848" height="22" as="geometry" />
        </mxCell>
        <mxCell id="gft7mGvlqzZCsYT-RaPn-201" value="string" style="shape=partialRectangle;connectable=1;fillColor=none;top=0;left=0;bottom=0;right=0;align=left;spacingLeft=2;overflow=hidden;fontSize=11;movable=1;resizable=1;rotatable=1;deletable=1;editable=1;locked=0;" vertex="1" parent="gft7mGvlqzZCsYT-RaPn-200">
          <mxGeometry width="48" height="22" as="geometry">
            <mxRectangle width="48" height="22" as="alternateBounds" />
          </mxGeometry>
        </mxCell>
        <mxCell id="gft7mGvlqzZCsYT-RaPn-202" value="type" style="shape=partialRectangle;connectable=1;fillColor=none;top=0;left=0;bottom=0;right=0;align=left;spacingLeft=2;overflow=hidden;fontSize=11;movable=1;resizable=1;rotatable=1;deletable=1;editable=1;locked=0;" vertex="1" parent="gft7mGvlqzZCsYT-RaPn-200">
          <mxGeometry x="48" width="140.55640535372848" height="22" as="geometry">
            <mxRectangle width="140.55640535372848" height="22" as="alternateBounds" />
          </mxGeometry>
        </mxCell>
        <mxCell id="gft7mGvlqzZCsYT-RaPn-203" style="shape=tableRow;horizontal=0;startSize=0;swimlaneHead=0;swimlaneBody=0;fillColor=none;collapsible=0;dropTarget=0;points=[[0,0.5],[1,0.5]];portConstraint=eastwest;top=0;left=0;right=0;bottom=0;movable=1;resizable=1;rotatable=1;deletable=1;editable=1;locked=0;connectable=1;" vertex="1" parent="gft7mGvlqzZCsYT-RaPn-196">
          <mxGeometry y="69" width="188.55640535372848" height="22" as="geometry" />
        </mxCell>
        <mxCell id="gft7mGvlqzZCsYT-RaPn-204" value="datetime" style="shape=partialRectangle;connectable=1;fillColor=none;top=0;left=0;bottom=0;right=0;align=left;spacingLeft=2;overflow=hidden;fontSize=11;movable=1;resizable=1;rotatable=1;deletable=1;editable=1;locked=0;" vertex="1" parent="gft7mGvlqzZCsYT-RaPn-203">
          <mxGeometry width="48" height="22" as="geometry">
            <mxRectangle width="48" height="22" as="alternateBounds" />
          </mxGeometry>
        </mxCell>
        <mxCell id="gft7mGvlqzZCsYT-RaPn-205" value="created_at" style="shape=partialRectangle;connectable=1;fillColor=none;top=0;left=0;bottom=0;right=0;align=left;spacingLeft=2;overflow=hidden;fontSize=11;movable=1;resizable=1;rotatable=1;deletable=1;editable=1;locked=0;" vertex="1" parent="gft7mGvlqzZCsYT-RaPn-203">
          <mxGeometry x="48" width="140.55640535372848" height="22" as="geometry">
            <mxRectangle width="140.55640535372848" height="22" as="alternateBounds" />
          </mxGeometry>
        </mxCell>
        <mxCell id="gft7mGvlqzZCsYT-RaPn-206" style="shape=tableRow;horizontal=0;startSize=0;swimlaneHead=0;swimlaneBody=0;fillColor=none;collapsible=0;dropTarget=0;points=[[0,0.5],[1,0.5]];portConstraint=eastwest;top=0;left=0;right=0;bottom=0;movable=1;resizable=1;rotatable=1;deletable=1;editable=1;locked=0;connectable=1;" vertex="1" parent="gft7mGvlqzZCsYT-RaPn-196">
          <mxGeometry y="91" width="188.55640535372848" height="22" as="geometry" />
        </mxCell>
        <mxCell id="gft7mGvlqzZCsYT-RaPn-207" value="datetime" style="shape=partialRectangle;connectable=1;fillColor=none;top=0;left=0;bottom=0;right=0;align=left;spacingLeft=2;overflow=hidden;fontSize=11;movable=1;resizable=1;rotatable=1;deletable=1;editable=1;locked=0;" vertex="1" parent="gft7mGvlqzZCsYT-RaPn-206">
          <mxGeometry width="48" height="22" as="geometry">
            <mxRectangle width="48" height="22" as="alternateBounds" />
          </mxGeometry>
        </mxCell>
        <mxCell id="gft7mGvlqzZCsYT-RaPn-208" value="updated_at" style="shape=partialRectangle;connectable=1;fillColor=none;top=0;left=0;bottom=0;right=0;align=left;spacingLeft=2;overflow=hidden;fontSize=11;movable=1;resizable=1;rotatable=1;deletable=1;editable=1;locked=0;" vertex="1" parent="gft7mGvlqzZCsYT-RaPn-206">
          <mxGeometry x="48" width="140.55640535372848" height="22" as="geometry">
            <mxRectangle width="140.55640535372848" height="22" as="alternateBounds" />
          </mxGeometry>
        </mxCell>
        <mxCell id="gft7mGvlqzZCsYT-RaPn-209" style="shape=tableRow;horizontal=0;startSize=0;swimlaneHead=0;swimlaneBody=0;fillColor=none;collapsible=0;dropTarget=0;points=[[0,0.5],[1,0.5]];portConstraint=eastwest;top=0;left=0;right=0;bottom=0;movable=1;resizable=1;rotatable=1;deletable=1;editable=1;locked=0;connectable=1;" vertex="1" parent="gft7mGvlqzZCsYT-RaPn-196">
          <mxGeometry y="113" width="188.55640535372848" height="22" as="geometry" />
        </mxCell>
        <mxCell id="gft7mGvlqzZCsYT-RaPn-210" value="datetime" style="shape=partialRectangle;connectable=1;fillColor=none;top=0;left=0;bottom=0;right=0;align=left;spacingLeft=2;overflow=hidden;fontSize=11;movable=1;resizable=1;rotatable=1;deletable=1;editable=1;locked=0;" vertex="1" parent="gft7mGvlqzZCsYT-RaPn-209">
          <mxGeometry width="48" height="22" as="geometry">
            <mxRectangle width="48" height="22" as="alternateBounds" />
          </mxGeometry>
        </mxCell>
        <mxCell id="gft7mGvlqzZCsYT-RaPn-211" value="deleted_at" style="shape=partialRectangle;connectable=1;fillColor=none;top=0;left=0;bottom=0;right=0;align=left;spacingLeft=2;overflow=hidden;fontSize=11;movable=1;resizable=1;rotatable=1;deletable=1;editable=1;locked=0;" vertex="1" parent="gft7mGvlqzZCsYT-RaPn-209">
          <mxGeometry x="48" width="140.55640535372848" height="22" as="geometry">
            <mxRectangle width="140.55640535372848" height="22" as="alternateBounds" />
          </mxGeometry>
        </mxCell>
        <mxCell id="gft7mGvlqzZCsYT-RaPn-212" value="PROPERTY_IMAGE" style="shape=table;startSize=25;container=1;collapsible=0;childLayout=tableLayout;fixedRows=1;rowLines=1;fontStyle=1;align=center;resizeLast=1;movable=1;resizable=1;rotatable=1;deletable=1;editable=1;locked=0;connectable=1;" vertex="1" parent="gft7mGvlqzZCsYT-RaPn-242">
          <mxGeometry x="1022.2562141491396" y="961.3969335604772" width="194.78967495219888" height="157" as="geometry" />
        </mxCell>
        <mxCell id="gft7mGvlqzZCsYT-RaPn-213" style="shape=tableRow;horizontal=0;startSize=0;swimlaneHead=0;swimlaneBody=0;fillColor=none;collapsible=0;dropTarget=0;points=[[0,0.5],[1,0.5]];portConstraint=eastwest;top=0;left=0;right=0;bottom=0;movable=1;resizable=1;rotatable=1;deletable=1;editable=1;locked=0;connectable=1;" vertex="1" parent="gft7mGvlqzZCsYT-RaPn-212">
          <mxGeometry y="25" width="194.78967495219888" height="22" as="geometry" />
        </mxCell>
        <mxCell id="gft7mGvlqzZCsYT-RaPn-214" value="int" style="shape=partialRectangle;connectable=1;fillColor=none;top=0;left=0;bottom=0;right=0;align=left;spacingLeft=2;overflow=hidden;fontSize=11;movable=1;resizable=1;rotatable=1;deletable=1;editable=1;locked=0;" vertex="1" parent="gft7mGvlqzZCsYT-RaPn-213">
          <mxGeometry width="48" height="22" as="geometry">
            <mxRectangle width="48" height="22" as="alternateBounds" />
          </mxGeometry>
        </mxCell>
        <mxCell id="gft7mGvlqzZCsYT-RaPn-215" value="id" style="shape=partialRectangle;connectable=1;fillColor=none;top=0;left=0;bottom=0;right=0;align=left;spacingLeft=2;overflow=hidden;fontSize=11;movable=1;resizable=1;rotatable=1;deletable=1;editable=1;locked=0;" vertex="1" parent="gft7mGvlqzZCsYT-RaPn-213">
          <mxGeometry x="48" width="146.78967495219888" height="22" as="geometry">
            <mxRectangle width="146.78967495219888" height="22" as="alternateBounds" />
          </mxGeometry>
        </mxCell>
        <mxCell id="gft7mGvlqzZCsYT-RaPn-216" style="shape=tableRow;horizontal=0;startSize=0;swimlaneHead=0;swimlaneBody=0;fillColor=none;collapsible=0;dropTarget=0;points=[[0,0.5],[1,0.5]];portConstraint=eastwest;top=0;left=0;right=0;bottom=0;movable=1;resizable=1;rotatable=1;deletable=1;editable=1;locked=0;connectable=1;" vertex="1" parent="gft7mGvlqzZCsYT-RaPn-212">
          <mxGeometry y="47" width="194.78967495219888" height="22" as="geometry" />
        </mxCell>
        <mxCell id="gft7mGvlqzZCsYT-RaPn-217" value="int" style="shape=partialRectangle;connectable=1;fillColor=none;top=0;left=0;bottom=0;right=0;align=left;spacingLeft=2;overflow=hidden;fontSize=11;movable=1;resizable=1;rotatable=1;deletable=1;editable=1;locked=0;" vertex="1" parent="gft7mGvlqzZCsYT-RaPn-216">
          <mxGeometry width="48" height="22" as="geometry">
            <mxRectangle width="48" height="22" as="alternateBounds" />
          </mxGeometry>
        </mxCell>
        <mxCell id="gft7mGvlqzZCsYT-RaPn-218" value="property_id" style="shape=partialRectangle;connectable=1;fillColor=none;top=0;left=0;bottom=0;right=0;align=left;spacingLeft=2;overflow=hidden;fontSize=11;movable=1;resizable=1;rotatable=1;deletable=1;editable=1;locked=0;" vertex="1" parent="gft7mGvlqzZCsYT-RaPn-216">
          <mxGeometry x="48" width="146.78967495219888" height="22" as="geometry">
            <mxRectangle width="146.78967495219888" height="22" as="alternateBounds" />
          </mxGeometry>
        </mxCell>
        <mxCell id="gft7mGvlqzZCsYT-RaPn-219" style="shape=tableRow;horizontal=0;startSize=0;swimlaneHead=0;swimlaneBody=0;fillColor=none;collapsible=0;dropTarget=0;points=[[0,0.5],[1,0.5]];portConstraint=eastwest;top=0;left=0;right=0;bottom=0;movable=1;resizable=1;rotatable=1;deletable=1;editable=1;locked=0;connectable=1;" vertex="1" parent="gft7mGvlqzZCsYT-RaPn-212">
          <mxGeometry y="69" width="194.78967495219888" height="22" as="geometry" />
        </mxCell>
        <mxCell id="gft7mGvlqzZCsYT-RaPn-220" value="string" style="shape=partialRectangle;connectable=1;fillColor=none;top=0;left=0;bottom=0;right=0;align=left;spacingLeft=2;overflow=hidden;fontSize=11;movable=1;resizable=1;rotatable=1;deletable=1;editable=1;locked=0;" vertex="1" parent="gft7mGvlqzZCsYT-RaPn-219">
          <mxGeometry width="48" height="22" as="geometry">
            <mxRectangle width="48" height="22" as="alternateBounds" />
          </mxGeometry>
        </mxCell>
        <mxCell id="gft7mGvlqzZCsYT-RaPn-221" value="image_path" style="shape=partialRectangle;connectable=1;fillColor=none;top=0;left=0;bottom=0;right=0;align=left;spacingLeft=2;overflow=hidden;fontSize=11;movable=1;resizable=1;rotatable=1;deletable=1;editable=1;locked=0;" vertex="1" parent="gft7mGvlqzZCsYT-RaPn-219">
          <mxGeometry x="48" width="146.78967495219888" height="22" as="geometry">
            <mxRectangle width="146.78967495219888" height="22" as="alternateBounds" />
          </mxGeometry>
        </mxCell>
        <mxCell id="gft7mGvlqzZCsYT-RaPn-222" style="shape=tableRow;horizontal=0;startSize=0;swimlaneHead=0;swimlaneBody=0;fillColor=none;collapsible=0;dropTarget=0;points=[[0,0.5],[1,0.5]];portConstraint=eastwest;top=0;left=0;right=0;bottom=0;movable=1;resizable=1;rotatable=1;deletable=1;editable=1;locked=0;connectable=1;" vertex="1" parent="gft7mGvlqzZCsYT-RaPn-212">
          <mxGeometry y="91" width="194.78967495219888" height="22" as="geometry" />
        </mxCell>
        <mxCell id="gft7mGvlqzZCsYT-RaPn-223" value="datetime" style="shape=partialRectangle;connectable=1;fillColor=none;top=0;left=0;bottom=0;right=0;align=left;spacingLeft=2;overflow=hidden;fontSize=11;movable=1;resizable=1;rotatable=1;deletable=1;editable=1;locked=0;" vertex="1" parent="gft7mGvlqzZCsYT-RaPn-222">
          <mxGeometry width="48" height="22" as="geometry">
            <mxRectangle width="48" height="22" as="alternateBounds" />
          </mxGeometry>
        </mxCell>
        <mxCell id="gft7mGvlqzZCsYT-RaPn-224" value="created_at" style="shape=partialRectangle;connectable=1;fillColor=none;top=0;left=0;bottom=0;right=0;align=left;spacingLeft=2;overflow=hidden;fontSize=11;movable=1;resizable=1;rotatable=1;deletable=1;editable=1;locked=0;" vertex="1" parent="gft7mGvlqzZCsYT-RaPn-222">
          <mxGeometry x="48" width="146.78967495219888" height="22" as="geometry">
            <mxRectangle width="146.78967495219888" height="22" as="alternateBounds" />
          </mxGeometry>
        </mxCell>
        <mxCell id="gft7mGvlqzZCsYT-RaPn-225" style="shape=tableRow;horizontal=0;startSize=0;swimlaneHead=0;swimlaneBody=0;fillColor=none;collapsible=0;dropTarget=0;points=[[0,0.5],[1,0.5]];portConstraint=eastwest;top=0;left=0;right=0;bottom=0;movable=1;resizable=1;rotatable=1;deletable=1;editable=1;locked=0;connectable=1;" vertex="1" parent="gft7mGvlqzZCsYT-RaPn-212">
          <mxGeometry y="113" width="194.78967495219888" height="22" as="geometry" />
        </mxCell>
        <mxCell id="gft7mGvlqzZCsYT-RaPn-226" value="datetime" style="shape=partialRectangle;connectable=1;fillColor=none;top=0;left=0;bottom=0;right=0;align=left;spacingLeft=2;overflow=hidden;fontSize=11;movable=1;resizable=1;rotatable=1;deletable=1;editable=1;locked=0;" vertex="1" parent="gft7mGvlqzZCsYT-RaPn-225">
          <mxGeometry width="48" height="22" as="geometry">
            <mxRectangle width="48" height="22" as="alternateBounds" />
          </mxGeometry>
        </mxCell>
        <mxCell id="gft7mGvlqzZCsYT-RaPn-227" value="updated_at" style="shape=partialRectangle;connectable=1;fillColor=none;top=0;left=0;bottom=0;right=0;align=left;spacingLeft=2;overflow=hidden;fontSize=11;movable=1;resizable=1;rotatable=1;deletable=1;editable=1;locked=0;" vertex="1" parent="gft7mGvlqzZCsYT-RaPn-225">
          <mxGeometry x="48" width="146.78967495219888" height="22" as="geometry">
            <mxRectangle width="146.78967495219888" height="22" as="alternateBounds" />
          </mxGeometry>
        </mxCell>
        <mxCell id="gft7mGvlqzZCsYT-RaPn-228" style="shape=tableRow;horizontal=0;startSize=0;swimlaneHead=0;swimlaneBody=0;fillColor=none;collapsible=0;dropTarget=0;points=[[0,0.5],[1,0.5]];portConstraint=eastwest;top=0;left=0;right=0;bottom=0;movable=1;resizable=1;rotatable=1;deletable=1;editable=1;locked=0;connectable=1;" vertex="1" parent="gft7mGvlqzZCsYT-RaPn-212">
          <mxGeometry y="135" width="194.78967495219888" height="22" as="geometry" />
        </mxCell>
        <mxCell id="gft7mGvlqzZCsYT-RaPn-229" value="datetime" style="shape=partialRectangle;connectable=1;fillColor=none;top=0;left=0;bottom=0;right=0;align=left;spacingLeft=2;overflow=hidden;fontSize=11;movable=1;resizable=1;rotatable=1;deletable=1;editable=1;locked=0;" vertex="1" parent="gft7mGvlqzZCsYT-RaPn-228">
          <mxGeometry width="48" height="22" as="geometry">
            <mxRectangle width="48" height="22" as="alternateBounds" />
          </mxGeometry>
        </mxCell>
        <mxCell id="gft7mGvlqzZCsYT-RaPn-230" value="deleted_at" style="shape=partialRectangle;connectable=1;fillColor=none;top=0;left=0;bottom=0;right=0;align=left;spacingLeft=2;overflow=hidden;fontSize=11;movable=1;resizable=1;rotatable=1;deletable=1;editable=1;locked=0;" vertex="1" parent="gft7mGvlqzZCsYT-RaPn-228">
          <mxGeometry x="48" width="146.78967495219888" height="22" as="geometry">
            <mxRectangle width="146.78967495219888" height="22" as="alternateBounds" />
          </mxGeometry>
        </mxCell>
        <mxCell id="gft7mGvlqzZCsYT-RaPn-231" value="sets" style="curved=1;startArrow=ERmandOne;startSize=10;;endArrow=ERoneToMany;endSize=10;;exitX=0.0039805204971976905;exitY=0.717368436165793;entryX=0.9787753555509779;entryY=0.060434097986939106;rounded=0;movable=1;resizable=1;rotatable=1;deletable=1;editable=1;locked=0;connectable=1;" edge="1" parent="gft7mGvlqzZCsYT-RaPn-242" source="gft7mGvlqzZCsYT-RaPn-1" target="gft7mGvlqzZCsYT-RaPn-32">
          <mxGeometry relative="1" as="geometry">
            <Array as="points">
              <mxPoint x="542.2944550669217" y="290.4940374787053" />
            </Array>
          </mxGeometry>
        </mxCell>
        <mxCell id="gft7mGvlqzZCsYT-RaPn-232" value="tracks" style="curved=1;startArrow=ERmandOne;startSize=10;;endArrow=ERmany;endSize=10;;exitX=0.19470994870053288;exitY=0.9983606807521133;entryX=0.6998473748227535;entryY=0.0012821295322516025;rounded=0;movable=1;resizable=1;rotatable=1;deletable=1;editable=1;locked=0;connectable=1;" edge="1" parent="gft7mGvlqzZCsYT-RaPn-242" source="gft7mGvlqzZCsYT-RaPn-1" target="gft7mGvlqzZCsYT-RaPn-66">
          <mxGeometry relative="1" as="geometry">
            <Array as="points">
              <mxPoint x="752.6673040152964" y="290.4940374787053" />
              <mxPoint x="752.6673040152964" y="868.5178875638841" />
            </Array>
          </mxGeometry>
        </mxCell>
        <mxCell id="gft7mGvlqzZCsYT-RaPn-233" value="exchanges" style="curved=1;startArrow=ERmandOne;startSize=10;;endArrow=ERmany;endSize=10;;exitX=1.0019297392471977;exitY=0.5878388270587782;entryX=0.5004402824070142;entryY=0.0008197221599641393;rounded=0;movable=1;resizable=1;rotatable=1;deletable=1;editable=1;locked=0;connectable=1;" edge="1" parent="gft7mGvlqzZCsYT-RaPn-242" source="gft7mGvlqzZCsYT-RaPn-1" target="gft7mGvlqzZCsYT-RaPn-85">
          <mxGeometry relative="1" as="geometry">
            <Array as="points">
              <mxPoint x="1541.1759082217973" y="290.4940374787053" />
            </Array>
          </mxGeometry>
        </mxCell>
        <mxCell id="gft7mGvlqzZCsYT-RaPn-234" value="has" style="curved=1;startArrow=ERmandOne;startSize=10;;endArrow=ERmany;endSize=10;;exitX=0.9533375549316406;exitY=0.7677778769771214;entryX=0.0003596098526664402;entryY=0.1318734075568284;rounded=0;movable=1;resizable=1;rotatable=1;deletable=1;editable=1;locked=0;connectable=1;" edge="1" parent="gft7mGvlqzZCsYT-RaPn-242" source="gft7mGvlqzZCsYT-RaPn-116" target="gft7mGvlqzZCsYT-RaPn-85">
          <mxGeometry relative="1" as="geometry">
            <Array as="points">
              <mxPoint x="1369.7609942638624" y="868.5178875638841" />
            </Array>
          </mxGeometry>
        </mxCell>
        <mxCell id="gft7mGvlqzZCsYT-RaPn-235" value="is" style="curved=1;startArrow=ERmandOne;startSize=10;;endArrow=ERmany;endSize=10;;exitX=1.0062499612064686;exitY=0.6365904984557138;entryX=0.9533375549316406;entryY=0.11342869682149367;rounded=0;movable=1;resizable=1;rotatable=1;deletable=1;editable=1;locked=0;connectable=1;" edge="1" parent="gft7mGvlqzZCsYT-RaPn-242" source="gft7mGvlqzZCsYT-RaPn-180" target="gft7mGvlqzZCsYT-RaPn-116">
          <mxGeometry relative="1" as="geometry">
            <Array as="points">
              <mxPoint x="1293.4034416826005" y="290.4940374787053" />
            </Array>
          </mxGeometry>
        </mxCell>
        <mxCell id="gft7mGvlqzZCsYT-RaPn-236" value="has" style="curved=1;startArrow=ERmandOne;startSize=10;;endArrow=ERmany;endSize=10;;exitX=1.002685925192084;exitY=0.6149554375011801;entryX=0.5323235126805844;entryY=-0.0008230327088155864;rounded=0;movable=1;resizable=1;rotatable=1;deletable=1;editable=1;locked=0;connectable=1;" edge="1" parent="gft7mGvlqzZCsYT-RaPn-242" source="gft7mGvlqzZCsYT-RaPn-196" target="gft7mGvlqzZCsYT-RaPn-116">
          <mxGeometry relative="1" as="geometry">
            <Array as="points">
              <mxPoint x="1136.0133843212238" y="290.4940374787053" />
            </Array>
          </mxGeometry>
        </mxCell>
        <mxCell id="gft7mGvlqzZCsYT-RaPn-237" value="has" style="curved=1;startArrow=ERmandOne;startSize=10;;endArrow=ERoneToMany;endSize=10;;exitX=0.4770673624674479;exitY=0.9983539345823689;entryX=0.5004808349609375;entryY=0.0012821295322516025;rounded=0;movable=1;resizable=1;rotatable=1;deletable=1;editable=1;locked=0;connectable=1;" edge="1" parent="gft7mGvlqzZCsYT-RaPn-242" source="gft7mGvlqzZCsYT-RaPn-116" target="gft7mGvlqzZCsYT-RaPn-212">
          <mxGeometry relative="1" as="geometry">
            <Array as="points" />
          </mxGeometry>
        </mxCell>
        <mxCell id="gft7mGvlqzZCsYT-RaPn-238" value="lists" style="curved=1;startArrow=ERmandOne;startSize=10;;endArrow=ERmany;endSize=10;;exitX=1.0019297392471977;exitY=0.9705114719130743;entryX=0.0007971700032552083;entryY=0.06835830955721828;rounded=0;movable=1;resizable=1;rotatable=1;deletable=1;editable=1;locked=0;connectable=1;" edge="1" parent="gft7mGvlqzZCsYT-RaPn-242" source="gft7mGvlqzZCsYT-RaPn-1" target="gft7mGvlqzZCsYT-RaPn-116">
          <mxGeometry relative="1" as="geometry">
            <Array as="points">
              <mxPoint x="964.5984703632887" y="290.4940374787053" />
            </Array>
          </mxGeometry>
        </mxCell>
        <mxCell id="gft7mGvlqzZCsYT-RaPn-239" value="sets" style="curved=1;startArrow=ERmandOne;startSize=10;;endArrow=ERmany;endSize=10;;exitX=0.36887835021971443;exitY=0.9970149709217584;entryX=0.706875646236106;entryY=-0.0015037364529487782;rounded=0;movable=1;resizable=1;rotatable=1;deletable=1;editable=1;locked=0;connectable=1;" edge="1" parent="gft7mGvlqzZCsYT-RaPn-242" source="gft7mGvlqzZCsYT-RaPn-180" target="gft7mGvlqzZCsYT-RaPn-32">
          <mxGeometry relative="1" as="geometry">
            <Array as="points">
              <mxPoint x="372.4378585086042" y="290.4940374787053" />
            </Array>
          </mxGeometry>
        </mxCell>
        <mxCell id="gft7mGvlqzZCsYT-RaPn-240" value="sets" style="curved=1;startArrow=ERmandOne;startSize=10;;endArrow=ERmany;endSize=10;;exitX=0.3690817984689644;exitY=0.9970149709217584;entryX=0.0143625053287738;entryY=-0.0015037364529487782;rounded=0;movable=1;resizable=1;rotatable=1;deletable=1;editable=1;locked=0;connectable=1;" edge="1" parent="gft7mGvlqzZCsYT-RaPn-242" source="gft7mGvlqzZCsYT-RaPn-196" target="gft7mGvlqzZCsYT-RaPn-32">
          <mxGeometry relative="1" as="geometry">
            <Array as="points">
              <mxPoint x="31.16634799235182" y="290.4940374787053" />
            </Array>
          </mxGeometry>
        </mxCell>
        <mxCell id="gft7mGvlqzZCsYT-RaPn-241" value="is saved on" style="curved=1;startArrow=ERmandOne;startSize=10;;endArrow=ERmany;endSize=10;;exitX=0.0007971700032552083;exitY=0.6269695502943623;entryX=0.3060628849216419;entryY=0.0012821295322516025;rounded=0;movable=1;resizable=1;rotatable=1;deletable=1;editable=1;locked=0;connectable=1;" edge="1" parent="gft7mGvlqzZCsYT-RaPn-242" source="gft7mGvlqzZCsYT-RaPn-116" target="gft7mGvlqzZCsYT-RaPn-66">
          <mxGeometry relative="1" as="geometry">
            <Array as="points">
              <mxPoint x="596.8355640535373" y="868.5178875638841" />
            </Array>
          </mxGeometry>
        </mxCell>
      </root>
    </mxGraphModel>
  </diagram>
</mxfile>
